<svg id="e1SFlh9BTaj1" xmlns="http://www.w3.org/2000/svg" xmlns:xlink="http://www.w3.org/1999/xlink" viewBox="0 0 500 500" shape-rendering="geometricPrecision" text-rendering="geometricPrecision"><g><path d="M303.991,103.129c-2.281,3.474-3.814,7.289-4.632,11.224l-6.268.59v12.138l6.269.591c.816,3.934,2.351,7.75,4.632,11.224l-4.003,4.836l8.583,8.583l4.835-4.003c3.474,2.28,7.289,3.815,11.224,4.632l.59,6.268l12.138-.001.591-6.267c3.935-.817,7.75-2.352,11.224-4.632l4.836,4.003l8.583-8.583-4.003-4.835c2.28-3.474,3.814-7.289,4.631-11.224l6.267-.591.001-12.138-6.268-.591c-.817-3.934-2.352-7.75-4.632-11.223l4.003-4.835-8.583-8.583-4.835,4.003c-3.474-2.281-7.29-3.816-11.224-4.632l-.591-6.268-12.138.001-.59,6.268c-3.935.817-7.75,2.351-11.223,4.632l-4.836-4.003-8.583,8.583l4.002,4.833Zm41.235,3.947c7.696,7.696,7.697,20.176,0,27.873-7.698,7.697-20.177,7.696-27.873,0-7.697-7.697-7.697-20.175,0-27.873c7.697-7.697,20.175-7.697,27.873,0Z" fill="#f0f0f0"/><g><g><path d="M269.881,109.688h-85.709c-2.726,0-4.936-2.21-4.936-4.936v-65.585c0-2.726,2.21-4.936,4.936-4.936h85.709c2.726,0,4.936,2.21,4.936,4.936v65.586c0,2.726-2.21,4.935-4.936,4.935Z" fill="#e6e6e6"/><path d="M274.817,47.389h-95.581v-8.531c0-2.555,2.072-4.627,4.627-4.627h86.409c2.51,0,4.546,2.035,4.546,4.546v8.612Z" fill="#e0e0e0"/></g><g><path d="M269.749,41.769c0,1.586-1.286,2.872-2.872,2.872s-2.872-1.286-2.872-2.872s1.286-2.872,2.872-2.872c1.586-.001,2.872,1.285,2.872,2.872Z" opacity="0.5" fill="#fafafa"/><path d="M261.586,41.769c0,1.586-1.286,2.872-2.872,2.872s-2.872-1.286-2.872-2.872s1.286-2.872,2.872-2.872c1.586-.001,2.872,1.285,2.872,2.872Z" opacity="0.5" fill="#fafafa"/><circle r="2.872" transform="translate(250.55 41.769)" opacity="0.5" fill="#fafafa"/></g><rect width="51.139" height="2.678" rx="0" ry="0" transform="translate(201.176 58.388)" opacity="0.6" fill="#fff"/><rect width="36.592" height="2.678" rx="0" ry="0" transform="translate(201.973 64.183)" fill="#e0e0e0"/><rect width="9.345" height="2.678" rx="0" ry="0" transform="translate(256.842 58.388)" fill="#f0f0f0"/><rect width="10.06" height="2.678" rx="0" ry="0" transform="translate(187.565 58.388)" fill="#f0f0f0"/><rect width="51.139" height="2.678" rx="0" ry="0" transform="translate(201.176 70.62)" fill="#f0f0f0"/><rect width="9.345" height="2.678" rx="0" ry="0" transform="translate(256.842 70.62)" opacity="0.6" fill="#fff"/><rect width="10.06" height="2.678" rx="0" ry="0" transform="translate(187.565 70.62)" fill="#f0f0f0"/><rect width="51.139" height="2.678" rx="0" ry="0" transform="translate(201.176 96.121)" opacity="0.6" fill="#fff"/><rect width="9.345" height="2.678" rx="0" ry="0" transform="translate(256.842 96.121)" opacity="0.6" fill="#fff"/><rect width="51.139" height="2.678" rx="0" ry="0" transform="translate(201.176 77.069)" fill="#f0f0f0"/><rect width="9.345" height="2.678" rx="0" ry="0" transform="translate(256.842 77.069)" fill="#e0e0e0"/><rect width="10.06" height="2.678" rx="0" ry="0" transform="translate(187.565 77.069)" fill="#e0e0e0"/><rect width="24.307" height="2.678" rx="0" ry="0" transform="translate(242.57 64.288)" fill="#f0f0f0"/><rect width="36.592" height="2.678" rx="0" ry="0" transform="translate(201.176 82.693)" opacity="0.6" fill="#fff"/><rect width="24.307" height="2.678" rx="0" ry="0" transform="translate(241.773 82.798)" fill="#f0f0f0"/><rect width="18.296" height="2.678" rx="0" ry="0" transform="translate(201.176 88.516)" fill="#e0e0e0"/></g><g><g><path d="M400.302,87.264L389.47,92.323l10.832,5.059v4.079l-14.474-7.02v-4.236l14.474-7.02v4.079Z" fill="#e0e0e0"/><path d="M433.267,90.205v4.236l-14.474,7.02v-4.079l10.831-5.059-10.831-5.059v-4.079l14.474,7.02Z" fill="#e0e0e0"/></g><g><polygon points="412.079,80.345 405.021,104.738 408.55,104.738 415.608,80.345" fill="#e0e0e0"/></g></g><path d="M37.356,217.844c-1.332,2.029-2.228,4.257-2.705,6.555l-3.661.345v7.089l3.661.345c.477,2.298,1.373,4.526,2.705,6.555l-2.338,2.824l5.013,5.013l2.824-2.338c2.029,1.332,4.257,2.228,6.555,2.705l.345,3.661h7.089l.345-3.66c2.298-.477,4.527-1.374,6.556-2.705l2.824,2.338l5.013-5.013-2.338-2.824c1.332-2.029,2.228-4.257,2.705-6.555l3.66-.345v-7.089l-3.661-.345c-.477-2.298-1.373-4.526-2.705-6.555l2.338-2.824-5.013-5.013-2.824,2.338c-2.029-1.332-4.258-2.229-6.555-2.706l-.345-3.661h-7.089l-.345,3.661c-2.298.477-4.526,1.373-6.555,2.705l-2.824-2.338-5.013,5.013l2.338,2.824Zm24.083,2.305c4.495,4.495,4.495,11.784,0,16.279-4.496,4.496-11.785,4.495-16.279,0-4.496-4.496-4.495-11.784,0-16.279c4.496-4.495,11.784-4.496,16.279,0Z" fill="#e0e0e0"/><path d="M439.11,135.318c-1.106,1.684-1.85,3.534-2.246,5.443l-3.039.286v5.886l3.04.286c.396,1.908,1.14,3.758,2.246,5.443l-1.941,2.345l4.162,4.162l2.345-1.941c1.685,1.106,3.535,1.85,5.443,2.246l.286,3.04h5.886l.286-3.039c1.908-.396,3.758-1.14,5.443-2.246l2.345,1.941l4.162-4.162-1.941-2.345c1.106-1.685,1.85-3.535,2.246-5.443l3.039-.286v-5.886l-3.039-.286c-.396-1.908-1.14-3.758-2.246-5.442l1.941-2.345-4.162-4.162-2.345,1.941c-1.685-1.106-3.535-1.85-5.442-2.246l-.286-3.039h-5.886l-.286,3.039c-1.908.396-3.758,1.14-5.442,2.246l-2.345-1.941-4.162,4.162l1.938,2.343Zm19.995,1.914c3.732,3.732,3.732,9.784,0,13.516-3.733,3.732-9.784,3.732-13.516,0s-3.732-9.783,0-13.516c3.733-3.732,9.784-3.733,13.516,0Z" fill="#e0e0e0"/><g><rect width="34.848" height="0.263" rx="0" ry="0" transform="translate(435.758 426.472)" fill="#ebebeb"/><rect width="9.146" height="0.263" rx="0" ry="0" transform="translate(336.596 429.327)" fill="#ebebeb"/><rect width="20.192" height="0.263" rx="0" ry="0" transform="translate(414.513 416.702)" fill="#ebebeb"/><rect width="45.444" height="0.263" rx="0" ry="0" transform="translate(52.459 418.47)" fill="#ebebeb"/><rect width="6.663" height="0.263" rx="0" ry="0" transform="translate(107.27 418.47)" fill="#ebebeb"/><rect width="98.556" height="0.263" rx="0" ry="0" transform="translate(135.587 422.912)" fill="#ebebeb"/></g><g><g><g><g><path d="M443.92,349.145h-180.746c-3.232,0-5.862-2.63-5.862-5.862v-263.274c0-3.232,2.63-5.862,5.862-5.862h180.746c3.232,0,5.862,2.629,5.862,5.862v263.273c.001,3.233-2.629,5.863-5.862,5.863ZM263.174,74.397c-3.095,0-5.612,2.518-5.612,5.612v263.273c0,3.095,2.518,5.612,5.612,5.612h180.746c3.095,0,5.612-2.518,5.612-5.612v-263.273c0-3.094-2.518-5.612-5.612-5.612h-180.746Z" fill="#e0e0e0"/></g></g><g><g><path d="M235.493,349.145h-180.747c-3.232,0-5.862-2.63-5.862-5.862v-263.274c0-3.232,2.629-5.862,5.862-5.862h180.747c3.232,0,5.862,2.629,5.862,5.862v263.273c0,3.233-2.63,5.863-5.862,5.863ZM54.746,74.397c-3.094,0-5.612,2.518-5.612,5.612v263.273c0,3.095,2.518,5.612,5.612,5.612h180.747c3.095,0,5.612-2.518,5.612-5.612v-263.273c0-3.094-2.518-5.612-5.612-5.612h-180.747Z" fill="#e0e0e0"/></g></g></g><g><g><rect width="500" height="0.25" rx="0" ry="0" transform="translate(0 410.214)" fill="#e0e0e0"/></g></g></g></g><g><g><g><path d="M455.058,447.486c0,3.387-93.517,6.132-208.875,6.132s-208.875-2.746-208.875-6.132c0-3.387,93.516-6.132,208.875-6.132s208.875,2.745,208.875,6.132Z" fill="#f5f5f5"/></g></g></g><g><g><g><g><path d="M118.145,353.54h-25.421c-4.04,0-7.316-3.275-7.316-7.316v-216.106c0-5.029,4.077-9.106,9.106-9.106h23.631v232.528Z" fill="#263238"/><polygon points="215.617,349.526 205.216,402.816 220.309,402.816 232.347,349.973" fill="#263238"/><rect width="7.641" height="7.641" rx="0" ry="0" transform="translate(192.527 402.185)" fill="#263238"/><path d="M118.145,353.54h-25.421c-4.04,0-7.316-3.275-7.316-7.316v-216.106c0-5.029,4.077-9.106,9.106-9.106h23.631v232.528Z" opacity="0.5" fill="#fff"/><polygon points="215.617,349.526 205.216,402.816 220.309,402.816 232.347,349.973" opacity="0.5" fill="#fff"/><rect width="7.641" height="7.641" rx="0" ry="0" transform="translate(192.527 402.185)" opacity="0.5" fill="#fff"/></g><polygon points="310.378,409.827 213.456,409.827 227.228,329.074 291.726,329.074" fill="#263238"/><polygon points="310.378,409.827 213.456,409.827 227.228,329.074 291.726,329.074" opacity="0.7" fill="#fff"/><polygon points="297.345,353.54 223.023,353.54 220.309,369.45 299.509,362.908" opacity="0.1"/><g><g><rect width="125.629" height="7.641" rx="0" ry="0" transform="translate(198.033 402.185)" fill="#263238"/></g><g opacity="0.7"><rect width="125.629" height="7.641" rx="0" ry="0" transform="translate(198.033 402.185)" fill="#fff"/></g></g><g><g><g><path d="M101.231,121.012h6.66h300.917h6.661c4.441,0,8.041,3.659,8.041,8.172v216.185c0,4.513-3.6,8.172-8.041,8.172h-6.661-300.917-6.66c-4.441,0-8.042-3.659-8.042-8.172v-216.185c0-4.513,3.6-8.172,8.042-8.172Z" fill="#263238"/></g></g><g opacity="0.7"><g><path d="M101.231,121.012h6.66h300.917h6.661c4.441,0,8.041,3.659,8.041,8.172v216.185c0,4.513-3.6,8.172-8.041,8.172h-6.661-300.917-6.66c-4.441,0-8.042-3.659-8.042-8.172v-216.185c0-4.513,3.6-8.172,8.042-8.172Z" fill="#fff"/></g></g><g><rect width="314.177" height="208.464" rx="0" ry="0" transform="translate(100.549 129.014)" fill="#407bff"/><rect width="314.177" height="208.464" rx="0" ry="0" transform="translate(100.549 129.014)" opacity="0.9" fill="#fff"/><rect width="314.181" height="16.733" rx="0" ry="0" transform="translate(100.549 129.014)" fill="#407bff"/><path d="M410.547,137.381c0,1.964-1.592,3.555-3.555,3.555-1.964,0-3.555-1.592-3.555-3.555c0-1.964,1.592-3.555,3.555-3.555c1.964,0,3.555,1.591,3.555,3.555Z" opacity="0.5" fill="#fff"/><path d="M400.443,137.381c0,1.964-1.592,3.555-3.555,3.555-1.964,0-3.555-1.592-3.555-3.555c0-1.964,1.592-3.555,3.555-3.555s3.555,1.591,3.555,3.555Z" opacity="0.5" fill="#fff"/><path d="M390.338,137.381c0,1.964-1.592,3.555-3.555,3.555-1.964,0-3.555-1.592-3.555-3.555c0-1.964,1.592-3.555,3.555-3.555s3.555,1.591,3.555,3.555Z" opacity="0.5" fill="#fff"/></g></g></g><g><path d="M158.803,267.82c-1.026,1.562-1.715,3.277-2.083,5.047l-2.818.265v5.458l2.819.266c.367,1.769,1.057,3.485,2.083,5.047l-1.8,2.174l3.859,3.859l2.174-1.8c1.562,1.025,3.278,1.715,5.047,2.083l.266,2.819h5.458l.266-2.818c1.769-.368,3.485-1.057,5.047-2.083l2.174,1.8l3.859-3.859-1.8-2.174c1.025-1.562,1.715-3.277,2.082-5.047l2.818-.266v-5.458l-2.818-.266c-.367-1.769-1.057-3.485-2.083-5.046l1.8-2.174-3.859-3.859-2.174,1.8c-1.562-1.026-3.278-1.716-5.047-2.083l-.266-2.818h-5.458l-.266,2.818c-1.769.367-3.485,1.057-5.047,2.083l-2.174-1.8-3.859,3.859l1.8,2.173Zm17.297,3.019c2.773,2.773,2.774,7.271,0,10.044-2.774,2.774-7.271,2.773-10.045,0-2.774-2.774-2.774-7.271,0-10.045c2.774-2.773,7.271-2.773,10.045.001Z" fill="#407bff"/><path d="M158.803,267.82c-1.026,1.562-1.715,3.277-2.083,5.047l-2.818.265v5.458l2.819.266c.367,1.769,1.057,3.485,2.083,5.047l-1.8,2.174l3.859,3.859l2.174-1.8c1.562,1.025,3.278,1.715,5.047,2.083l.266,2.819h5.458l.266-2.818c1.769-.368,3.485-1.057,5.047-2.083l2.174,1.8l3.859-3.859-1.8-2.174c1.025-1.562,1.715-3.277,2.082-5.047l2.818-.266v-5.458l-2.818-.266c-.367-1.769-1.057-3.485-2.083-5.046l1.8-2.174-3.859-3.859-2.174,1.8c-1.562-1.026-3.278-1.716-5.047-2.083l-.266-2.818h-5.458l-.266,2.818c-1.769.367-3.485,1.057-5.047,2.083l-2.174-1.8-3.859,3.859l1.8,2.173Zm17.297,3.019c2.773,2.773,2.774,7.271,0,10.044-2.774,2.774-7.271,2.773-10.045,0-2.774-2.774-2.774-7.271,0-10.045c2.774-2.773,7.271-2.773,10.045.001Z" opacity="0.4" fill="#fff"/></g><g><path d="M319.92,201.032c-.95,1.447-1.589,3.036-1.929,4.675l-2.61.246v5.055l2.611.246c.34,1.638.979,3.228,1.929,4.674l-1.667,2.014l3.575,3.575l2.014-1.667c1.447.95,3.036,1.589,4.674,1.929l.246,2.611h5.055l.246-2.61c1.639-.34,3.228-.979,4.675-1.929l2.014,1.667l3.575-3.575-1.667-2.014c.95-1.447,1.589-3.036,1.929-4.674l2.61-.246v-5.055l-2.61-.246c-.34-1.638-.979-3.227-1.929-4.674l1.667-2.014-3.575-3.574-2.014,1.667c-1.447-.95-3.036-1.589-4.674-1.929l-.246-2.61h-5.055l-.246,2.61c-1.639.34-3.228.979-4.674,1.929l-2.014-1.667-3.575,3.575l1.665,2.011Zm16.021,2.796c2.569,2.569,2.569,6.734,0,9.303s-6.735,2.569-9.304,0-2.569-6.734,0-9.304c2.57-2.568,6.735-2.568,9.304.001Z" fill="#407bff"/><path d="M319.92,201.032c-.95,1.447-1.589,3.036-1.929,4.675l-2.61.246v5.055l2.611.246c.34,1.638.979,3.228,1.929,4.674l-1.667,2.014l3.575,3.575l2.014-1.667c1.447.95,3.036,1.589,4.674,1.929l.246,2.611h5.055l.246-2.61c1.639-.34,3.228-.979,4.675-1.929l2.014,1.667l3.575-3.575-1.667-2.014c.95-1.447,1.589-3.036,1.929-4.674l2.61-.246v-5.055l-2.61-.246c-.34-1.638-.979-3.227-1.929-4.674l1.667-2.014-3.575-3.574-2.014,1.667c-1.447-.95-3.036-1.589-4.674-1.929l-.246-2.61h-5.055l-.246,2.61c-1.639.34-3.228.979-4.674,1.929l-2.014-1.667-3.575,3.575l1.665,2.011Zm16.021,2.796c2.569,2.569,2.569,6.734,0,9.303s-6.735,2.569-9.304,0-2.569-6.734,0-9.304c2.57-2.568,6.735-2.568,9.304.001Z" opacity="0.4" fill="#fff"/></g><g><path d="M313.662,173.054c-.614.935-1.027,1.962-1.247,3.021l-1.687.159v3.267l1.687.159c.22,1.059.633,2.086,1.246,3.021l-1.077,1.301l2.31,2.31l1.301-1.077c.935.614,1.962,1.027,3.021,1.247l.159,1.687h3.267l.159-1.687c1.059-.22,2.086-.633,3.021-1.247l1.301,1.077l2.31-2.31-1.077-1.301c.614-.935,1.027-1.962,1.246-3.021l1.687-.159v-3.267l-1.687-.159c-.22-1.059-.633-2.086-1.247-3.021l1.077-1.301-2.31-2.31-1.301,1.077c-.935-.614-1.962-1.027-3.021-1.247l-.159-1.687h-3.267l-.159,1.687c-1.059.22-2.086.633-3.02,1.247l-1.301-1.077-2.31,2.31l1.078,1.301Zm10.353,1.807c1.66,1.66,1.66,4.352,0,6.012s-4.352,1.66-6.012,0-1.66-4.352,0-6.012s4.352-1.66,6.012,0Z" fill="#407bff"/><path d="M313.662,173.054c-.614.935-1.027,1.962-1.247,3.021l-1.687.159v3.267l1.687.159c.22,1.059.633,2.086,1.246,3.021l-1.077,1.301l2.31,2.31l1.301-1.077c.935.614,1.962,1.027,3.021,1.247l.159,1.687h3.267l.159-1.687c1.059-.22,2.086-.633,3.021-1.247l1.301,1.077l2.31-2.31-1.077-1.301c.614-.935,1.027-1.962,1.246-3.021l1.687-.159v-3.267l-1.687-.159c-.22-1.059-.633-2.086-1.247-3.021l1.077-1.301-2.31-2.31-1.301,1.077c-.935-.614-1.962-1.027-3.021-1.247l-.159-1.687h-3.267l-.159,1.687c-1.059.22-2.086.633-3.02,1.247l-1.301-1.077-2.31,2.31l1.078,1.301Zm10.353,1.807c1.66,1.66,1.66,4.352,0,6.012s-4.352,1.66-6.012,0-1.66-4.352,0-6.012s4.352-1.66,6.012,0Z" opacity="0.7" fill="#fff"/></g><g><path d="M177.005,300.574c-.614.935-1.027,1.962-1.247,3.021l-1.687.159v3.267l1.687.159c.22,1.059.633,2.086,1.247,3.021l-1.077,1.301l2.31,2.31l1.301-1.077c.935.614,1.962,1.027,3.021,1.246l.159,1.687h3.267l.159-1.687c1.059-.22,2.086-.633,3.021-1.247l1.301,1.077l2.31-2.31L191.7,310.2c.614-.935,1.027-1.962,1.246-3.021l1.687-.159v-3.267l-1.687-.159c-.22-1.059-.633-2.086-1.247-3.021l1.077-1.301-2.31-2.31-1.301,1.077c-.935-.614-1.962-1.027-3.021-1.247l-.159-1.687h-3.267l-.159,1.687c-1.059.22-2.086.633-3.021,1.246l-1.301-1.077-2.31,2.31l1.078,1.303Zm10.353,1.807c1.66,1.66,1.66,4.352,0,6.012s-4.352,1.66-6.012,0-1.66-4.352,0-6.012c1.66-1.661,4.351-1.661,6.012,0Z" fill="#407bff"/><path d="M177.005,300.574c-.614.935-1.027,1.962-1.247,3.021l-1.687.159v3.267l1.687.159c.22,1.059.633,2.086,1.247,3.021l-1.077,1.301l2.31,2.31l1.301-1.077c.935.614,1.962,1.027,3.021,1.246l.159,1.687h3.267l.159-1.687c1.059-.22,2.086-.633,3.021-1.247l1.301,1.077l2.31-2.31L191.7,310.2c.614-.935,1.027-1.962,1.246-3.021l1.687-.159v-3.267l-1.687-.159c-.22-1.059-.633-2.086-1.247-3.021l1.077-1.301-2.31-2.31-1.301,1.077c-.935-.614-1.962-1.027-3.021-1.247l-.159-1.687h-3.267l-.159,1.687c-1.059.22-2.086.633-3.021,1.246l-1.301-1.077-2.31,2.31l1.078,1.303Zm10.353,1.807c1.66,1.66,1.66,4.352,0,6.012s-4.352,1.66-6.012,0-1.66-4.352,0-6.012c1.66-1.661,4.351-1.661,6.012,0Z" opacity="0.7" fill="#fff"/></g><g><g><path d="M199.5,206.286c-4.432,6.749-7.411,14.161-9,21.808l-12.178,1.146-.001,23.583l12.18,1.148c1.586,7.644,4.567,15.057,8.999,21.807l-7.778,9.395l16.676,16.676l9.395-7.778c6.749,4.431,14.162,7.412,21.807,8.999l1.147,12.179l23.583-.001l1.148-12.176c7.646-1.588,15.058-4.569,21.807-9l9.395,7.778l16.676-16.676-7.778-9.395c4.431-6.749,7.411-14.162,8.998-21.807l12.177-1.148.002-23.583-12.178-1.148c-1.587-7.644-4.569-15.057-9-21.806l7.778-9.395-16.676-16.676-9.395,7.778c-6.75-4.432-14.163-7.414-21.807-9.001l-1.148-12.178-23.583.001-1.147,12.177c-7.645,1.587-15.058,4.567-21.806,8.999l-9.395-7.778-16.677,16.677l7.779,9.395Zm80.116,7.668c14.953,14.953,14.954,39.2,0,54.154-14.955,14.955-39.202,14.953-54.155,0-14.955-14.955-14.954-39.199.001-54.155c14.954-14.952,39.199-14.954,54.154.001Z" fill="#407bff"/></g><g><path d="M241.262,244.4h-8.505l-1.622,3.925h-4.344l8.165-18.318h4.187l8.191,18.318h-4.449l-1.623-3.925Zm-1.335-3.218l-2.905-7.014-2.905,7.014h5.81Z" fill="#407bff"/><path d="M261.398,230.818c1.195.541,2.115,1.309,2.762,2.303.645.994.968,2.172.968,3.533c0,1.344-.323,2.517-.968,3.52-.646,1.003-1.566,1.771-2.762,2.303-1.194.532-2.604.798-4.226.798h-3.69v5.051h-4.24v-18.318h7.93c1.623-.001,3.032.27,4.226.81Zm-1.556,8.179c.663-.55.994-1.33.994-2.342c0-1.029-.331-1.819-.994-2.368-.663-.55-1.632-.825-2.904-.825h-3.455v6.359h3.455c1.272,0,2.241-.275,2.904-.824Z" fill="#407bff"/><path d="M268.138,230.007h4.239v18.318h-4.239v-18.318Z" fill="#407bff"/></g><g><path d="M217.788,245.884c-.253,0-.471-.192-.497-.449-1.065-10.453,1.98-20.459,8.574-28.176.179-.211.496-.235.705-.055.21.179.235.495.055.705-6.414,7.507-9.376,17.247-8.339,27.425.028.275-.172.52-.447.548-.017.001-.035.002-.051.002Z" fill="#407bff"/></g><g><path d="M219.476,253.783c-.216,0-.416-.142-.48-.359-.409-1.395-.745-2.822-.999-4.244-.049-.271.132-.531.404-.58.274-.047.531.133.58.404.248,1.386.576,2.779.975,4.138.078.265-.074.543-.339.62-.048.014-.095.021-.141.021Z" fill="#407bff"/></g></g><polyline points="128.327,188.796 128.327,238.859 171.077,238.859" fill="none" stroke="#407bff" stroke-linecap="round" stroke-linejoin="round" stroke-miterlimit="10"/><circle r="2.562" transform="translate(128.327 188.796)" fill="#407bff"/><circle r="2.562" transform="translate(389.197 278.424)" fill="#407bff"/><polyline points="389.197,278.047 389.197,297.898 326.585,297.898 326.585,270.492 317.198,270.492" fill="none" stroke="#407bff" stroke-miterlimit="10"/></g></g><g id="e1SFlh9BTaj122" opacity="0"><g><rect width="108.89" height="104.44" rx="0" ry="0" transform="translate(359.993 305.387)" fill="#407bff"/><rect width="108.89" height="104.44" rx="0" ry="0" transform="translate(359.993 305.387)" opacity="0.4" fill="#fff"/><rect width="74.22" height="104.44" rx="0" ry="0" transform="translate(394.653 305.387)" opacity="0.4" fill="#fff"/><rect width="66.8" height="12.93" rx="0" ry="0" transform="translate(398.363 310.727)" fill="#407bff"/><rect width="66.8" height="12.93" rx="0" ry="0" transform="translate(398.363 326.897)" fill="#407bff"/><rect width="66.8" height="12.93" rx="0" ry="0" transform="translate(398.363 343.056)" fill="#407bff"/><rect width="66.8" height="12.93" rx="0" ry="0" transform="translate(398.363 359.227)" fill="#407bff"/><rect width="66.8" height="12.93" rx="0" ry="0" transform="translate(398.363 375.397)" fill="#407bff"/><rect width="66.8" height="12.93" rx="0" ry="0" transform="translate(398.363 391.566)" fill="#407bff"/><rect width="26.89" height="12.93" rx="0" ry="0" transform="translate(363.883 310.727)" fill="#407bff"/><rect width="26.89" height="12.93" rx="0" ry="0" transform="translate(363.883 326.897)" fill="#407bff"/><rect width="26.89" height="12.93" rx="0" ry="0" transform="translate(363.883 343.056)" fill="#407bff"/><rect width="26.89" height="12.93" rx="0" ry="0" transform="translate(363.883 359.227)" fill="#407bff"/><rect width="26.89" height="12.93" rx="0" ry="0" transform="translate(363.883 375.397)" fill="#407bff"/><rect width="26.89" height="12.93" rx="0" ry="0" transform="translate(363.883 391.566)" fill="#407bff"/><rect width="1.56" height="9.57" rx="0" ry="0" transform="translate(460.333 312.406)" opacity="0.3" fill="#fff"/><rect width="1.56" height="9.57" rx="0" ry="0" transform="translate(457.333 312.406)" opacity="0.3" fill="#fff"/><rect width="1.56" height="9.57" rx="0" ry="0" transform="translate(454.333 312.406)" opacity="0.3" fill="#fff"/><rect width="1.56" height="9.57" rx="0" ry="0" transform="translate(451.333 312.406)" opacity="0.3" fill="#fff"/><rect width="1.56" height="9.57" rx="0" ry="0" transform="translate(448.333 312.406)" opacity="0.3" fill="#fff"/><rect width="1.56" height="9.56" rx="0" ry="0" transform="translate(460.333 328.577)" opacity="0.3" fill="#fff"/><rect width="1.56" height="9.56" rx="0" ry="0" transform="translate(457.333 328.577)" opacity="0.3" fill="#fff"/><rect width="1.56" height="9.56" rx="0" ry="0" transform="translate(454.333 328.577)" opacity="0.3" fill="#fff"/><rect width="1.56" height="9.56" rx="0" ry="0" transform="translate(451.333 328.577)" opacity="0.3" fill="#fff"/><rect width="1.56" height="9.56" rx="0" ry="0" transform="translate(448.333 328.577)" opacity="0.3" fill="#fff"/><rect width="1.56" height="9.56" rx="0" ry="0" transform="translate(460.333 344.746)" opacity="0.3" fill="#fff"/><rect width="1.56" height="9.56" rx="0" ry="0" transform="translate(457.333 344.746)" opacity="0.3" fill="#fff"/><rect width="1.56" height="9.56" rx="0" ry="0" transform="translate(454.333 344.746)" opacity="0.3" fill="#fff"/><rect width="1.56" height="9.56" rx="0" ry="0" transform="translate(451.333 344.746)" opacity="0.3" fill="#fff"/><rect width="1.56" height="9.56" rx="0" ry="0" transform="translate(448.333 344.746)" opacity="0.3" fill="#fff"/><rect width="1.56" height="9.57" rx="0" ry="0" transform="translate(460.333 360.917)" opacity="0.3" fill="#fff"/><rect width="1.56" height="9.57" rx="0" ry="0" transform="translate(457.333 360.917)" opacity="0.3" fill="#fff"/><rect width="1.56" height="9.57" rx="0" ry="0" transform="translate(454.333 360.917)" opacity="0.3" fill="#fff"/><rect width="1.56" height="9.57" rx="0" ry="0" transform="translate(451.333 360.917)" opacity="0.3" fill="#fff"/><rect width="1.56" height="9.57" rx="0" ry="0" transform="translate(448.333 360.917)" opacity="0.3" fill="#fff"/><rect width="1.56" height="9.56" rx="0" ry="0" transform="translate(460.333 377.086)" opacity="0.3" fill="#fff"/><rect width="1.56" height="9.56" rx="0" ry="0" transform="translate(457.333 377.086)" opacity="0.3" fill="#fff"/><rect width="1.56" height="9.56" rx="0" ry="0" transform="translate(454.333 377.086)" opacity="0.3" fill="#fff"/><rect width="1.56" height="9.56" rx="0" ry="0" transform="translate(451.333 377.086)" opacity="0.3" fill="#fff"/><rect width="1.56" height="9.56" rx="0" ry="0" transform="translate(448.333 377.086)" opacity="0.3" fill="#fff"/><rect width="1.56" height="9.57" rx="0" ry="0" transform="translate(460.333 393.246)" opacity="0.3" fill="#fff"/><rect width="1.56" height="9.57" rx="0" ry="0" transform="translate(457.333 393.246)" opacity="0.3" fill="#fff"/><rect width="1.56" height="9.57" rx="0" ry="0" transform="translate(454.333 393.246)" opacity="0.3" fill="#fff"/><rect width="1.56" height="9.57" rx="0" ry="0" transform="translate(451.333 393.246)" opacity="0.3" fill="#fff"/><rect width="1.56" height="9.57" rx="0" ry="0" transform="translate(448.333 393.246)" opacity="0.3" fill="#fff"/><path d="M406.133,317.186c0,.878-.712,1.59-1.59,1.59s-1.59-.712-1.59-1.59.712-1.59,1.59-1.59v0c.878,0,1.59.712,1.59,1.59Z" opacity="0.2" fill="#fff"/><path d="M416.133,317.186c0,.878-.712,1.59-1.59,1.59s-1.59-.712-1.59-1.59.712-1.59,1.59-1.59v0c.878,0,1.59.712,1.59,1.59Z" opacity="0.2" fill="#fff"/><path d="M426.133,317.186c0,.878-.712,1.59-1.59,1.59s-1.59-.712-1.59-1.59.712-1.59,1.59-1.59v0c.878,0,1.59.712,1.59,1.59Z" opacity="0.4" fill="#fff"/><path d="M406.133,333.357c0,.878-.712,1.59-1.59,1.59s-1.59-.712-1.59-1.59.712-1.59,1.59-1.59v0c.878,0,1.59.711,1.59,1.59Z" opacity="0.4" fill="#fff"/><path d="M416.133,333.357c0,.878-.712,1.59-1.59,1.59s-1.59-.712-1.59-1.59.712-1.59,1.59-1.59v0c.878,0,1.59.711,1.59,1.59Z" opacity="0.2" fill="#fff"/><path d="M426.133,333.357c0,.878-.712,1.59-1.59,1.59s-1.59-.712-1.59-1.59.712-1.59,1.59-1.59v0c.878,0,1.59.711,1.59,1.59Z" opacity="0.4" fill="#fff"/><path d="M406.133,349.526c0,.878-.712,1.59-1.59,1.59s-1.59-.712-1.59-1.59.712-1.59,1.59-1.59v0c.878,0,1.59.712,1.59,1.59Z" opacity="0.2" fill="#fff"/><path d="M416.133,349.526c0,.878-.712,1.59-1.59,1.59s-1.59-.712-1.59-1.59.712-1.59,1.59-1.59v0c.878,0,1.59.712,1.59,1.59Z" opacity="0.4" fill="#fff"/><path d="M426.133,349.526c0,.878-.712,1.59-1.59,1.59s-1.59-.712-1.59-1.59.712-1.59,1.59-1.59v0c.878,0,1.59.712,1.59,1.59Z" opacity="0.2" fill="#fff"/><path d="M406.133,365.697c0,.878-.712,1.59-1.59,1.59s-1.59-.712-1.59-1.59.712-1.59,1.59-1.59v0c.878,0,1.59.711,1.59,1.59Z" opacity="0.4" fill="#fff"/><path d="M416.133,365.697c0,.878-.712,1.59-1.59,1.59s-1.59-.712-1.59-1.59.712-1.59,1.59-1.59v0c.878,0,1.59.711,1.59,1.59Z" opacity="0.2" fill="#fff"/><path d="M426.133,365.697c0,.878-.712,1.59-1.59,1.59s-1.59-.712-1.59-1.59.712-1.59,1.59-1.59v0c.878,0,1.59.711,1.59,1.59Z" opacity="0.2" fill="#fff"/><path d="M406.133,381.866c0,.878-.712,1.59-1.59,1.59s-1.59-.712-1.59-1.59.712-1.59,1.59-1.59v0c.878,0,1.59.712,1.59,1.59Z" opacity="0.2" fill="#fff"/><path d="M416.133,381.866c0,.878-.712,1.59-1.59,1.59s-1.59-.712-1.59-1.59.712-1.59,1.59-1.59v0c.878,0,1.59.712,1.59,1.59Z" opacity="0.4" fill="#fff"/><path d="M426.133,381.866c0,.878-.712,1.59-1.59,1.59s-1.59-.712-1.59-1.59.712-1.59,1.59-1.59v0c.878,0,1.59.712,1.59,1.59Z" opacity="0.4" fill="#fff"/><path d="M406.133,398.036c0,.878-.712,1.59-1.59,1.59s-1.59-.712-1.59-1.59.712-1.59,1.59-1.59v0c.878.001,1.59.712,1.59,1.59Z" opacity="0.4" fill="#fff"/><path d="M416.133,398.036c0,.878-.712,1.59-1.59,1.59s-1.59-.712-1.59-1.59.712-1.59,1.59-1.59v0c.878.001,1.59.712,1.59,1.59Z" opacity="0.2" fill="#fff"/><path d="M426.133,398.036c0,.878-.712,1.59-1.59,1.59s-1.59-.712-1.59-1.59.712-1.59,1.59-1.59v0c.878.001,1.59.712,1.59,1.59Z" opacity="0.4" fill="#fff"/><rect width="34.66" height="104.44" rx="0" ry="0" transform="translate(359.993 305.387)" opacity="0.3"/></g></g><g id="e1SFlh9BTaj188" opacity="0"><g><g><path d="M460.15,268.666h-101.206c-2.726,0-4.936-2.21-4.936-4.936v-83.533c0-2.726,2.21-4.936,4.936-4.936h101.206c2.726,0,4.936,2.21,4.936,4.936v83.533c0,2.726-2.21,4.936-4.936,4.936Z" fill="#407bff"/><path d="M460.15,268.666h-101.206c-2.726,0-4.936-2.21-4.936-4.936v-83.533c0-2.726,2.21-4.936,4.936-4.936h101.206c2.726,0,4.936,2.21,4.936,4.936v83.533c0,2.726-2.21,4.936-4.936,4.936Z" opacity="0.5" fill="#fff"/><path d="M465.086,191.548h-111.078v-11.661c0-2.555,2.072-4.627,4.627-4.627h101.906c2.51,0,4.546,2.035,4.546,4.546v11.742Z" fill="#407bff"/></g><g><path d="M458.814,184.592c0,1.964-1.592,3.556-3.555,3.556-1.964,0-3.555-1.592-3.555-3.556s1.592-3.555,3.555-3.555s3.555,1.591,3.555,3.555Z" opacity="0.5" fill="#fff"/><path d="M448.709,184.592c0,1.964-1.592,3.556-3.555,3.556-1.964,0-3.555-1.592-3.555-3.556s1.592-3.555,3.555-3.555s3.555,1.591,3.555,3.555Z" opacity="0.5" fill="#fff"/><path d="M438.604,184.592c0,1.964-1.592,3.556-3.555,3.556-1.964,0-3.555-1.592-3.555-3.556s1.592-3.555,3.555-3.555s3.555,1.591,3.555,3.555Z" opacity="0.5" fill="#fff"/></g><rect width="56.974" height="3.315" rx="0" ry="0" transform="translate(379.006 205.164)" opacity="0.6" fill="#fff"/><rect width="40.767" height="3.315" rx="0" ry="0" transform="translate(379.893 212.337)" opacity="0.6" fill="#263238"/><rect width="11.208" height="3.315" rx="0" ry="0" transform="translate(440.167 205.164)" fill="#407bff"/><rect width="11.208" height="3.315" rx="0" ry="0" transform="translate(363.842 205.164)" fill="#407bff"/><rect width="56.974" height="3.315" rx="0" ry="0" transform="translate(379.006 220.305)" fill="#407bff"/><rect width="11.208" height="3.315" rx="0" ry="0" transform="translate(440.167 220.305)" opacity="0.6" fill="#fff"/><rect width="11.208" height="3.315" rx="0" ry="0" transform="translate(363.842 220.305)" fill="#407bff"/><rect width="56.974" height="3.315" rx="0" ry="0" transform="translate(379.006 251.872)" fill="#407bff"/><rect width="11.208" height="3.315" rx="0" ry="0" transform="translate(440.167 251.872)" opacity="0.6" fill="#fff"/><rect width="56.974" height="3.315" rx="0" ry="0" transform="translate(379.006 228.288)" fill="#407bff"/><rect width="11.208" height="3.315" rx="0" ry="0" transform="translate(440.167 228.288)" opacity="0.6" fill="#263238"/><rect width="11.208" height="3.315" rx="0" ry="0" transform="translate(363.842 228.288)" opacity="0.6" fill="#263238"/><rect width="27.08" height="3.315" rx="0" ry="0" transform="translate(425.122 212.467)" fill="#407bff"/><rect width="40.766" height="3.315" rx="0" ry="0" transform="translate(379.006 235.249)" opacity="0.6" fill="#fff"/><rect width="27.08" height="3.315" rx="0" ry="0" transform="translate(424.235 235.38)" fill="#407bff"/><rect width="20.383" height="3.315" rx="0" ry="0" transform="translate(379.006 242.457)" opacity="0.6" fill="#263238"/></g><g><g><path d="M158.839,173.059h-101.207c-2.726,0-4.936-2.21-4.936-4.936v-83.532c0-2.726,2.21-4.936,4.936-4.936h101.206c2.726,0,4.936,2.21,4.936,4.936v83.533c.001,2.726-2.209,4.935-4.935,4.935Z" fill="#407bff"/><path d="M158.839,173.059h-101.207c-2.726,0-4.936-2.21-4.936-4.936v-83.532c0-2.726,2.21-4.936,4.936-4.936h101.206c2.726,0,4.936,2.21,4.936,4.936v83.533c.001,2.726-2.209,4.935-4.935,4.935Z" opacity="0.5" fill="#fff"/><path d="M163.775,95.942h-111.079v-11.66c0-2.555,2.072-4.627,4.627-4.627h101.906c2.51,0,4.546,2.035,4.546,4.546v11.741Z" fill="#407bff"/></g><g><path d="M157.502,88.986c0,1.964-1.592,3.555-3.555,3.555-1.964,0-3.555-1.592-3.555-3.555c0-1.964,1.592-3.555,3.555-3.555s3.555,1.591,3.555,3.555Z" opacity="0.5" fill="#fff"/><path d="M147.397,88.986c0,1.964-1.592,3.555-3.555,3.555-1.964,0-3.555-1.592-3.555-3.555c0-1.964,1.592-3.555,3.555-3.555s3.555,1.591,3.555,3.555Z" opacity="0.5" fill="#fff"/><path d="M137.292,88.986c0,1.964-1.592,3.555-3.555,3.555-1.964,0-3.555-1.592-3.555-3.555c0-1.964,1.592-3.555,3.555-3.555c1.964,0,3.555,1.591,3.555,3.555Z" opacity="0.5" fill="#fff"/></g><path d="M143.245,131.723c-3.689-4.939-11.235-7.352-16.265-3.787-1.239-7.075-6.363-13.343-13.05-15.963-6.688-2.62-14.705-1.502-20.421,2.849-5.715,4.35-8.929,11.781-8.184,18.925-4.851-1.105-10.193.063-13.35,5.081-4.092,6.507,1.212,12.955,1.212,12.955l28.502.163v-10.446h-3.643c-.646,0-.977-.775-.53-1.242l4.195-4.379l4.855-5.067c.289-.302.771-.302,1.06,0l4.855,5.067l4.195,4.379c.447.467.116,1.242-.53,1.242h-3.643v10.508l30.333.174c4.324-4.968,4.097-15.519.409-20.459Z" fill="#fff"/></g></g><g id="e1SFlh9BTaj224" opacity="0"><g><g><path d="M100.518,412.609c0,0,87.121-20.411,91.265-2.265c5.915,25.903-56.943,43.328-90.424,42.261-33.481-1.066-.841-39.996-.841-39.996Z" fill="#263238"/><path d="M100.518,412.609c0,0,87.121-20.411,91.265-2.265c5.915,25.903-56.943,43.328-90.424,42.261-33.481-1.066-.841-39.996-.841-39.996Z" opacity="0.2"/><path d="M163.197,415.943l-40.914,26.001l5.46,7.76c0,0-2.876,4.262-8.351-8.831l25.313-16.733c0,0-7.923-.795-7.724-2.034.336-2.034,17.742-5.904,25.68-7.647.41-.148.862.064,1.009.474.149.411-.064.863-.473,1.01Z" opacity="0.7"/><path d="M120.799,439.015l7.097,11.5c-8.752,1.529-17.641,2.228-26.537,2.09-2.925-.018-5.821-.543-8.55-1.549l-2.493-4.559l5.368-10.799l25.115,3.317Z" opacity="0.7"/><g><g><g><g><g><polygon points="134.344,434.442 116.146,445.983 119.408,454.815 140.774,445.214" fill="#b97964"/></g></g></g></g><g><g><g><g><g><g><g><g><g><g><g><g><path d="M106.13,448.941l1.786,6.352c0,0,1.341.283,1.759,1.619.235.751-.318,2.821-.318,2.821l4.783,17.505c.025-.007,1.2-.324,1.666-.66.568-.41,1.029-.83,1.398-1.256c1.292-1.493,1.435-3.657,1.483-5.259.081-2.686,1.624-10.532,1.624-10.532s.589-2.044,2.747-3.845c1.204-1.004,1.76-2.272,1.648-3.057-.227-1.601-1.377-2.202-2.874-2.022l-1.739.212c-1.243-.926-1.624-2.491-.837-3.999c0,0,1.028-3.813-.57-3.172-.912.366-4.93,2.159-8.146,3.48-.749.309-1.459.599-2.081.854v.002c-1.381.566-2.329.957-2.329.957Z" fill="#263238"/></g></g></g></g></g></g><g><g><g><g><path d="M119.64,463.714c.049-.098.023-.221-.059-.296-.376-.345-.839-.593-1.364-.703-.276-.058-.403.386-.123.445.466.097.875.314,1.204.615.11.101.274.076.34-.056.001-.002.002-.003.002-.005Z" fill="#407bff"/></g></g></g></g><g><g><g><g><path d="M119.998,462.165c.049-.098.023-.221-.059-.297-.376-.345-.839-.593-1.363-.703-.276-.058-.403.386-.124.445.466.097.875.314,1.204.615.11.101.274.076.34-.056.001-.001.001-.003.002-.004Z" fill="#407bff"/></g></g></g></g><g><g><g><g><path d="M120.295,460.587c.049-.098.023-.221-.059-.296-.376-.345-.839-.593-1.364-.703-.276-.058-.403.386-.123.445.466.097.875.313,1.204.615.11.101.274.076.34-.056.001-.002.001-.004.002-.005Z" fill="#407bff"/></g></g></g></g></g></g></g></g></g></g><g><path d="M108.46,447.982v.002c-1.381.567-2.33.958-2.33.958l1.786,6.352c0,0,1.341.283,1.759,1.619.235.751-.318,2.821-.318,2.821l4.783,17.505c.025-.007,1.2-.324,1.666-.66.261-.188.493-.379.711-.571l-7.711-28.167c-.113.045-.238.096-.346.141Z" opacity="0.2" fill="#fff"/></g><path d="M120.048,460.48c.593-.219,1.189-.439,1.811-.551s1.277-.111,1.87.105c.276.101.562.281.622.569.063.302-.154.596-.405.776-.483.345-1.12.43-1.704.319-.582-.111-1.711-.872-2.194-1.218" fill="none" stroke="#407bff" stroke-width="0.25" stroke-miterlimit="10"/><path d="M120.028,460.406c.495-.393.993-.788,1.412-1.261s.758-1.033.882-1.652c.058-.288.052-.626-.162-.827-.226-.211-.589-.178-.873-.057-.546.233-.949.734-1.158,1.29-.209.555-.145,1.915-.101,2.507" fill="none" stroke="#407bff" stroke-width="0.25" stroke-miterlimit="10"/></g></g><path d="M136.512,357.177c0,0,3.182,28.326,4.032,29.845c2.875,5.139,21.924,13.95,21.924,13.95l9.712-2.034l6.959,5.812-4.589,3.594-5.384-2.034c-2.938.524-5.917.785-8.902.78-5.017,0-29.209-6.132-33.247-12.877s-5.893-37.979-5.893-37.979l15.388.943Z" fill="#b97964"/><g><path d="M120.713,368.311c0,0-7.464-24.876,1.836-31.782c9.299-6.906,16.695,27.296,16.695,27.296l-18.531,4.486Z" fill="#407bff"/><path d="M120.713,368.311c0,0-7.464-24.876,1.836-31.782c9.299-6.906,16.695,27.296,16.695,27.296l-18.531,4.486Z" opacity="0.3" fill="#fff"/><path d="M126.603,413.811l-.072-32.971-.924-45.402-19.266-3.969-16.954-.748-19.291,8.828-.45,11.077c0,0,2.206,50.866,2.082,52.399-.152,1.88-5.623,13.678-5.623,13.678c24.372,5.555,60.882-1.21,60.498-2.892Z" fill="#407bff"/><path d="M126.603,413.811l-.072-32.971-.924-45.402-19.266-3.969-16.954-.748-19.291,8.828-.45,11.077c0,0,2.206,50.866,2.082,52.399-.152,1.88-5.623,13.678-5.623,13.678c24.372,5.555,60.882-1.21,60.498-2.892Z" opacity="0.3" fill="#fff"/><path d="M98.999,338.029c0,0,4.73,4.212,7.151-1.232l1.261.982c0,0-.122,4.049-2.417,5.404.557,2.247,10.159,34.948,11.877,51.43l-2.625,6.683-6.973-5.504c0,0-3.385-28.277-4.543-52.3-2.792-.946-5.001-3.04-6.026-5.713l2.295.25Z" fill="#407bff"/><polygon points="105.1,338.579 109.2,341.767 109.87,332.197 108.568,331.919 107.485,338.369 105.536,337.236" opacity="0.2"/><path d="M85.348,332.571c-.069.031,9.653,11.886,9.653,11.886l3.3-2.513l2.269-1.922.589-.724-12.868-8.939c0,0-1.725,1.761-1.903,1.761-.178.001-1.04.451-1.04.451Z" opacity="0.2"/><polygon points="86.04,332.369 90.742,328.171 103.611,340.219 100.245,339.027 95.342,342.795" fill="#407bff"/><path d="M103.611,340.219c-.285-.544,1.03-11.49,1.03-11.49l4.559,3.118c-.242-.05-.401,9.047-.549,9.047s-3.021-3.107-3.021-3.107l-2.019,2.432Z" fill="#407bff"/><path d="" fill="#263238"/><polygon points="126.257,366.969 125.26,345.706 130.016,366.059" opacity="0.2"/><path d="M85.015,370.067c.6-.117,3.638-1.113,3.638-1.113L81.9,350.168l9.271,20.783-5.573,2.218-.583-3.102Z" opacity="0.2"/><polygon points="86.04,332.369 90.742,328.171 103.611,340.219 100.245,339.027 95.342,342.795" opacity="0.3" fill="#fff"/><path d="M103.611,340.219c-.285-.544,1.03-11.49,1.03-11.49l4.559,3.118c-.242-.05-.401,9.047-.549,9.047s-3.021-3.107-3.021-3.107l-2.019,2.432Z" opacity="0.3" fill="#fff"/><polygon points="110.909,357.802 113.068,368.41 119.357,370.689 123.612,366.979 122.834,356.961" opacity="0.3" fill="#fff"/><path d="M104.376,339.298l-1.991.486c-.006-.002-.076.126-.028.046.028-.046-1.089,3.772-1.089,3.772.322.284,1.392,2.134,1.516,2.104s2.767-.276,2.767-.276l.959-2.799c0-.001-2.15-3.356-2.134-3.333Z" fill="#407bff"/><path d="M104.376,339.298l-1.991.486c-.006-.002-.076.126-.028.046.028-.046-1.089,3.772-1.089,3.772.322.284,1.392,2.134,1.516,2.104s2.767-.276,2.767-.276l.959-2.799c0-.001-2.15-3.356-2.134-3.333Z" opacity="0.2"/></g><g><path d="M82.405,354.487c0,0,4.726,31.447,7.456,34.387c4.613,4.967,27.463,18.148,27.463,18.148l11.405-3.999c.799-.262,1.683-.119,2.336.38l7.798,5.952-.745.628c-.321.271-.787.326-1.166.137l-1.212-.603l1.355,1.328-.429.362c-.427.36-1.019.489-1.567.342l-3.487-.935l3.218,2.142c-.718.605-1.718.816-2.636.554l-5.101-1.454c-3.479.796-7.023,1.304-10.591,1.517-6.006.37-34.371-9.541-39.658-16.797s-10.738-37.386-10.738-37.386l16.299-4.703Z" fill="#b97964"/><g><path d="M67.312,375.407c0,0-7.068-28.501,2.231-35.407s18.51,29.15,18.51,29.15l-20.741,6.257Z" fill="#407bff"/><path d="M67.312,375.407c0,0-7.068-28.501,2.231-35.407s18.51,29.15,18.51,29.15l-20.741,6.257Z" opacity="0.3" fill="#fff"/></g></g><g><g><path d="M128.176,301.687c1.18-.113,2.194-1.18,2.246-2.365s-.863-2.337-2.029-2.554l-5.514-.553c.262,3.54.525,7.079.787,10.619c1.067.275,2.216.331,3.258-.027c1.042-.357,1.959-1.17,2.273-2.226.315-1.055-.076-2.328-1.021-2.894Z" fill="#263238"/></g><g><path d="M107.106,322.101L95.258,307.193c0,0-.005.012-.008.052-.003,1.409-.047,3.02-.163,4.738-.005.012-1.272-.609-1.277-.597-.507,7.746-3.57,20.96-3.428,22.103l12.45,6.186l2.269-2.267.436-5.04c-1.252-3.155-.072-6.833,1.569-10.267Z" fill="#b97964"/><path d="M105.333,327.129l-7.494-5.923c-.187,3.015,1.389,7.75,7.398,10.212-.356-1.812-.237-3.097.096-4.289Z" opacity="0.2"/></g><g><path d="M97.787,299.802c-2.452,10.033-3.376,14.851.051,21.405c5.155,9.859,17.746,9.943,23.161.818c4.874-8.213,8.066-23.24-.402-30.064-8.342-6.723-20.357-2.192-22.81,7.841Z" fill="#b97964"/><path d="M99.905,286.184c3.036-5.006,10.983-5.817,13.92-1.866.439.59-4.309.733-3.766.707l-2.783,7.903c-.544-.311-1.903.015-3.06,1.645c0,0-1.79,10.873-7.424,13.914-5.532-7.633-4.9-22.288,3.113-22.303Z" fill="#263238"/><path d="M91.351,306.801c0,2.779,1.292,5.289,2.944,6.866c2.485,2.371,5.369.538,6.053-2.651.616-2.87.066-7.561-3.089-8.725-3.109-1.146-5.908,1.333-5.908,4.51Z" fill="#b97964"/><path d="M111.372,308.208c-.313,1.008-.03,1.985.631,2.183s1.451-.457,1.764-1.465c.313-1.007.03-1.985-.631-2.183s-1.451.458-1.764,1.465Z" fill="#263238"/><path d="M121.253,311.419c-.313,1.007-.03,1.985.631,2.183.662.198,1.451-.458,1.765-1.465.313-1.008.03-1.985-.631-2.183-.662-.198-1.452.458-1.765,1.465Z" fill="#263238"/><path d="M117.774,308.727c0,0,1.252,4.591,1.825,7.317.137.652-.35,1.288-1.016,1.307-1.452.039-2.815-.774-2.815-.774l2.006-7.85Z" fill="#a24e3f"/><path d="M110.319,302.165c.133.109.32.147.494.081c2.069-.78,3.556.267,3.571.277.221.159.531.111.693-.108.161-.219.112-.527-.107-.686-.078-.057-1.941-1.37-4.508-.401-.256.097-.385.38-.289.634.032.082.083.15.146.203Z" fill="#263238"/><path d="M126.497,306.836c.093-.014.183-.054.258-.122.204-.182.224-.495.044-.699-1.806-2.038-4.05-1.697-4.152-1.694-.269.043-.456.295-.416.565.039.269.287.453.555.413.093-.018,1.825-.259,3.275,1.377.112.129.278.183.436.16Z" fill="#263238"/></g><g><path d="M110.542,318.629c.344.281.713.531,1.102.746.126.067.282.034.369-.08v0c.057-.136.004-.292-.123-.366-2.013-1.081-3.389-3.06-3.703-5.324-.016-.141-.138-.245-.28-.241-.129-.007-.239.092-.245.221-.001.02,0,.039.004.059.237,1.986,1.276,3.787,2.876,4.985Z" fill="#263238"/></g><g><path d="M133.149,294.204c-.675-2.004-3.061-2.845-5.171-2.996c1.323-.025,2.364-1.368,2.367-2.691s-.817-2.537-1.857-3.355c-1.859-1.46-4.511-1.839-6.704-.958.415-.201.564-.754.431-1.196s-.481-.785-.847-1.065c-2.233-1.706-5.691-1.535-7.746.382-.717-2.428-3.529-4.016-5.979-3.378-2.389.623-6.891,1.102-7.587,7.217-2.026-1.44-5.169-1.134-6.771.801-1.732,2.091-1.283,5.618.918,7.208-1.092-.46-2.449.249-2.899,1.346-.449,1.096-.101,2.409.661,3.316s1.876,1.457,3.015,1.781c1.073.306,2.234.431,3.3.1s2.014-1.185,2.227-2.281c.18,1.149,1.387,2.001,2.543,1.879c1.157-.122,2.131-1.124,2.321-2.271.189-1.147-.358-2.358-1.284-3.062c1.316,1.275,3.861.773,4.595-.906.975,1.872,2.366,3.639,4.304,4.475s4.492.483,5.732-1.225c.63.734,1.272,1.478,2.087,1.999s1.842.794,2.763.499s1.645-1.269,1.45-2.216c1.523,1.27,3.667,1.929,5.542,1.286c1.874-.642,3.222-2.81,2.589-4.689Z" fill="#263238"/></g></g><g><g><path d="M143.429,411.633h-17.541-18.614c0,.004,0,.008,0,.012.009,1.38,1.551,2.494,3.443,2.488h18.597h10.639c.016,0,.033,0,.049,0c.001,0,.002,0,.003,0h29.606c1.877-.013,3.387-1.13,3.378-2.5h-29.56Z" fill="#263238"/></g><path d="M170.153,413.992h-33.03c-.57-.004-1.028-.378-1.024-.835.001-.086.018-.171.052-.253l14.693-33.686c.371-.962,1.477-1.62,2.732-1.624h33.05c.559,0,1.012.364,1.012.813c0,.094-.021.187-.06.276l-14.693,33.686c-.376.958-1.479,1.613-2.732,1.623Z" fill="#263238"/><path d="M186.628,377.593h-33.05c-1.255.005-2.361.662-2.732,1.624l-14.139,32.416h-10.819-18.614c0,.004,0,.008,0,.012.009,1.38,1.551,2.494,3.443,2.488h18.597h10.639c.016,0,.033,0,.049,0c.001,0,.002,0,.003,0h29.606c.595-.004,1.145-.129,1.63-.328.768-.259,1.383-.772,1.644-1.437l14.693-33.686c.04-.089.06-.182.06-.276.001-.449-.451-.813-1.01-.813Z" opacity="0.7" fill="#fff"/><path d="M166.779,395.527c-.714,1.617-2.161,2.727-3.239,2.501-1.079-.226-1.366-1.699-.674-3.32.693-1.621,2.156-2.706,3.235-2.48s1.401,1.64.678,3.299Z" fill="#fff"/><g opacity="0.3"><line x1="136.1" y1="411.633" x2="136.706" y2="411.633" fill="none" stroke="#000" stroke-width="0" stroke-linecap="round" stroke-linejoin="round"/><path d="M150.845,379.217l-14.139,32.416h1.531l15.34-34.04c-1.254.005-2.36.662-2.732,1.624Z"/></g></g><g><g><g><g><g><g><polygon points="152.552,448.996 173.827,452.42 177.241,443.646 154.879,436.669" fill="#b97964"/></g></g></g></g><g><g><g><g><g><g><g><g><g><g><g><g><path d="M183.287,456.847l2.874-5.94c0,0-.817-1.101-.243-2.378.322-.718,2.108-1.901,2.108-1.901l8.024-16.276c-.024-.012-1.114-.553-1.686-.61-.697-.07-1.32-.061-1.88.013-1.957.261-3.498,1.787-4.597,2.955-1.841,1.957-8.198,6.808-8.198,6.808s-1.796,1.14-4.606,1.057c-1.567-.046-2.824.534-3.26,1.196-.892,1.349-.429,2.561.811,3.419l1.442.994c.316,1.517-.435,2.941-2.024,3.549c0,0-3.298,2.173-1.676,2.753.926.331,5.122,1.652,8.405,2.795.766.266,1.489.519,2.124.74l.001-.001c1.411.49,2.381.827,2.381.827Z" fill="#263238"/></g></g></g></g></g></g><g><g><g><g><path d="M182.966,436.83c-.102.041-.164.15-.152.261.053.508.235,1,.555,1.43.169.227.557-.022.387-.251-.284-.382-.447-.815-.494-1.258-.016-.148-.155-.239-.292-.184-.001,0-.003.001-.004.002Z" fill="#407bff"/></g></g></g></g><g><g><g><g><path d="M181.671,437.753c-.102.041-.164.15-.152.261.053.508.235,1.001.555,1.43.169.227.557-.022.387-.251-.284-.382-.447-.815-.494-1.258-.016-.148-.155-.239-.292-.184-.001,0-.002.001-.004.002Z" fill="#407bff"/></g></g></g></g><g><g><g><g><path d="M180.403,438.737c-.102.041-.164.15-.152.261.053.508.235,1.001.555,1.43.169.227.558-.022.387-.251-.284-.382-.447-.814-.494-1.258-.016-.148-.155-.239-.292-.184-.001.001-.003.001-.004.002Z" fill="#407bff"/></g></g></g></g></g></g></g></g></g></g><path d="M185.917,448.528c.322-.718,2.108-1.901,2.108-1.901l8.024-16.276c-.024-.012-1.114-.553-1.686-.61-.32-.032-.621-.043-.911-.043l-12.901,26.199c.116.04.243.085.354.124l.001-.001c1.41.491,2.379.828,2.379.828l2.874-5.94c.002-.001-.815-1.102-.242-2.38Z" opacity="0.2" fill="#fff"/><path d="M180.517,438.98c-.589-.229-1.181-.46-1.721-.788s-1.029-.763-1.33-1.319c-.14-.258-.235-.583-.089-.838.153-.268.51-.344.817-.312.591.062,1.124.421,1.487.891s.703,1.787.836,2.366" fill="none" stroke="#407bff" stroke-width="0.25" stroke-miterlimit="10"/><path d="M180.483,439.049c-.631-.034-1.266-.069-1.893.008-.627.076-1.253.271-1.756.652-.234.177-.454.434-.427.727.029.307.323.524.616.622.564.188,1.197.08,1.722-.198s1.378-1.338,1.738-1.811" fill="none" stroke="#407bff" stroke-width="0.25" stroke-miterlimit="10"/></g><path d="M72.605,439.295c-4.589-7.307-14.959-27.11,6.087-30.968s91.362,29.558,91.362,29.558l-4.456,13.419-65.447-10.317c0,0,8.955,11.955-1.906,11.41-15.8-1.563-19.593-5.343-25.64-13.102Z" fill="#263238"/><path d="M101.704,441.347l-17.955-5.649c0,0,15.063,9.215,20.588,10.311l-2.633-4.662Z" opacity="0.7"/></g></g></g><g id="e1SFlh9BTaj361" opacity="0"><g><g><g><g><path d="M35.002,270.842h36.596c3.308,0,5.99,2.682,5.99,5.99v19.758c0,3.308-2.682,5.99-5.99,5.99h-8.755l-.065,5.977-6.592-5.977h-21.185c-3.308,0-5.99-2.682-5.99-5.99v-19.758c0-3.308,2.682-5.99,5.991-5.99Z" fill="#407bff"/></g></g></g><g><g><path d="M48.794,283.59l-5.77,2.695l5.77,2.694v2.173l-7.71-3.739v-2.256l7.71-3.74v2.173Z" fill="#fff"/><path d="M66.354,285.157v2.256l-7.711,3.739v-2.173l5.77-2.694-5.77-2.695v-2.173l7.711,3.74Z" fill="#fff"/></g><g><polygon points="55.067,279.904 51.307,292.898 53.187,292.898 56.946,279.904" fill="#fff"/></g></g><g><path d="M63.152,269.493h-18.797c-.138,0-.25-.112-.25-.25s.112-.25.25-.25h18.796c.138,0,.25.112.25.25.001.138-.111.25-.249.25Z" fill="#407bff"/></g><g><path d="M68.337,269.501h-2.966c-.138,0-.25-.112-.25-.25s.112-.25.25-.25h2.966c.138,0,.25.112.25.25s-.112.25-.25.25Z" fill="#407bff"/></g></g></g>
<script><![CDATA[
!function(t,n){"object"==typeof exports&&"undefined"!=typeof module?module.exports=n():"function"==typeof __SVGATOR_DEFINE__&&__SVGATOR_DEFINE__.amd?__SVGATOR_DEFINE__(n):((t="undefined"!=typeof globalThis?globalThis:t||self).__SVGATOR_PLAYER__=t.__SVGATOR_PLAYER__||{},t.__SVGATOR_PLAYER__["5c7f360c"]=n())}(this,(function(){"use strict";function t(t,n){var e=Object.keys(t);if(Object.getOwnPropertySymbols){var r=Object.getOwnPropertySymbols(t);n&&(r=r.filter((function(n){return Object.getOwnPropertyDescriptor(t,n).enumerable}))),e.push.apply(e,r)}return e}function n(n){for(var e=1;e<arguments.length;e++){var r=null!=arguments[e]?arguments[e]:{};e%2?t(Object(r),!0).forEach((function(t){u(n,t,r[t])})):Object.getOwnPropertyDescriptors?Object.defineProperties(n,Object.getOwnPropertyDescriptors(r)):t(Object(r)).forEach((function(t){Object.defineProperty(n,t,Object.getOwnPropertyDescriptor(r,t))}))}return n}function e(t){return(e="function"==typeof Symbol&&"symbol"==typeof Symbol.iterator?function(t){return typeof t}:function(t){return t&&"function"==typeof Symbol&&t.constructor===Symbol&&t!==Symbol.prototype?"symbol":typeof t})(t)}function r(t,n){if(!(t instanceof n))throw new TypeError("Cannot call a class as a function")}function i(t,n){for(var e=0;e<n.length;e++){var r=n[e];r.enumerable=r.enumerable||!1,r.configurable=!0,"value"in r&&(r.writable=!0),Object.defineProperty(t,r.key,r)}}function o(t,n,e){return n&&i(t.prototype,n),e&&i(t,e),t}function u(t,n,e){return n in t?Object.defineProperty(t,n,{value:e,enumerable:!0,configurable:!0,writable:!0}):t[n]=e,t}function a(t){return(a=Object.setPrototypeOf?Object.getPrototypeOf:function(t){return t.__proto__||Object.getPrototypeOf(t)})(t)}function l(t,n){return(l=Object.setPrototypeOf||function(t,n){return t.__proto__=n,t})(t,n)}function s(){if("undefined"==typeof Reflect||!Reflect.construct)return!1;if(Reflect.construct.sham)return!1;if("function"==typeof Proxy)return!0;try{return Boolean.prototype.valueOf.call(Reflect.construct(Boolean,[],(function(){}))),!0}catch(t){return!1}}function f(t,n,e){return(f=s()?Reflect.construct:function(t,n,e){var r=[null];r.push.apply(r,n);var i=new(Function.bind.apply(t,r));return e&&l(i,e.prototype),i}).apply(null,arguments)}function c(t,n){if(n&&("object"==typeof n||"function"==typeof n))return n;if(void 0!==n)throw new TypeError("Derived constructors may only return object or undefined");return function(t){if(void 0===t)throw new ReferenceError("this hasn't been initialised - super() hasn't been called");return t}(t)}function h(t,n,e){return(h="undefined"!=typeof Reflect&&Reflect.get?Reflect.get:function(t,n,e){var r=function(t,n){for(;!Object.prototype.hasOwnProperty.call(t,n)&&null!==(t=a(t)););return t}(t,n);if(r){var i=Object.getOwnPropertyDescriptor(r,n);return i.get?i.get.call(e):i.value}})(t,n,e||t)}function v(t){return function(t){if(Array.isArray(t))return y(t)}(t)||function(t){if("undefined"!=typeof Symbol&&null!=t[Symbol.iterator]||null!=t["@@iterator"])return Array.from(t)}(t)||function(t,n){if(!t)return;if("string"==typeof t)return y(t,n);var e=Object.prototype.toString.call(t).slice(8,-1);"Object"===e&&t.constructor&&(e=t.constructor.name);if("Map"===e||"Set"===e)return Array.from(t);if("Arguments"===e||/^(?:Ui|I)nt(?:8|16|32)(?:Clamped)?Array$/.test(e))return y(t,n)}(t)||function(){throw new TypeError("Invalid attempt to spread non-iterable instance.\nIn order to be iterable, non-array objects must have a [Symbol.iterator]() method.")}()}function y(t,n){(null==n||n>t.length)&&(n=t.length);for(var e=0,r=new Array(n);e<n;e++)r[e]=t[e];return r}function g(t,n,e){if(Number.isInteger(t))return t;var r=Math.pow(10,n);return Math[e]((+t+Number.EPSILON)*r)/r}Number.isInteger||(Number.isInteger=function(t){return"number"==typeof t&&isFinite(t)&&Math.floor(t)===t}),Number.EPSILON||(Number.EPSILON=2220446049250313e-31);var d=p(Math.pow(10,-6));function p(t){var n=arguments.length>1&&void 0!==arguments[1]?arguments[1]:6;return g(t,n,"round")}function m(t,n){var e=arguments.length>2&&void 0!==arguments[2]?arguments[2]:d;return Math.abs(t-n)<e}p(Math.pow(10,-2)),p(Math.pow(10,-4));var b=Math.PI/180;function w(t){return t}function A(t,n,e){var r=1-e;return 3*e*r*(t*r+n*e)+e*e*e}function _(){var t=arguments.length>0&&void 0!==arguments[0]?arguments[0]:0,n=arguments.length>1&&void 0!==arguments[1]?arguments[1]:0,e=arguments.length>2&&void 0!==arguments[2]?arguments[2]:1,r=arguments.length>3&&void 0!==arguments[3]?arguments[3]:1;return t<0||t>1||e<0||e>1?null:m(t,n)&&m(e,r)?w:function(i){if(i<=0)return t>0?i*n/t:0===n&&e>0?i*r/e:0;if(i>=1)return e<1?1+(i-1)*(r-1)/(e-1):1===e&&t<1?1+(i-1)*(n-1)/(t-1):1;for(var o,u=0,a=1;u<a;){var l=A(t,e,o=(u+a)/2);if(m(i,l))break;l<i?u=o:a=o}return A(n,r,o)}}function x(){return 1}function k(t){return 1===t?1:0}function S(){var t=arguments.length>0&&void 0!==arguments[0]?arguments[0]:1,n=arguments.length>1&&void 0!==arguments[1]?arguments[1]:0;if(1===t){if(0===n)return k;if(1===n)return x}var e=1/t;return function(t){return t>=1?1:(t+=n*e)-t%e}}var O=Math.sin,j=Math.cos,M=Math.acos,E=Math.asin,P=Math.tan,I=Math.atan2,R=Math.PI/180,F=180/Math.PI,N=Math.sqrt,T=function(){function t(){var n=arguments.length>0&&void 0!==arguments[0]?arguments[0]:1,e=arguments.length>1&&void 0!==arguments[1]?arguments[1]:0,i=arguments.length>2&&void 0!==arguments[2]?arguments[2]:0,o=arguments.length>3&&void 0!==arguments[3]?arguments[3]:1,u=arguments.length>4&&void 0!==arguments[4]?arguments[4]:0,a=arguments.length>5&&void 0!==arguments[5]?arguments[5]:0;r(this,t),this.m=[n,e,i,o,u,a],this.i=null,this.w=null,this.s=null}return o(t,[{key:"determinant",get:function(){var t=this.m;return t[0]*t[3]-t[1]*t[2]}},{key:"isIdentity",get:function(){if(null===this.i){var t=this.m;this.i=1===t[0]&&0===t[1]&&0===t[2]&&1===t[3]&&0===t[4]&&0===t[5]}return this.i}},{key:"point",value:function(t,n){var e=this.m;return{x:e[0]*t+e[2]*n+e[4],y:e[1]*t+e[3]*n+e[5]}}},{key:"translateSelf",value:function(){var t=arguments.length>0&&void 0!==arguments[0]?arguments[0]:0,n=arguments.length>1&&void 0!==arguments[1]?arguments[1]:0;if(!t&&!n)return this;var e=this.m;return e[4]+=e[0]*t+e[2]*n,e[5]+=e[1]*t+e[3]*n,this.w=this.s=this.i=null,this}},{key:"rotateSelf",value:function(){var t=arguments.length>0&&void 0!==arguments[0]?arguments[0]:0;if(t%=360){var n=O(t*=R),e=j(t),r=this.m,i=r[0],o=r[1];r[0]=i*e+r[2]*n,r[1]=o*e+r[3]*n,r[2]=r[2]*e-i*n,r[3]=r[3]*e-o*n,this.w=this.s=this.i=null}return this}},{key:"scaleSelf",value:function(){var t=arguments.length>0&&void 0!==arguments[0]?arguments[0]:1,n=arguments.length>1&&void 0!==arguments[1]?arguments[1]:1;if(1!==t||1!==n){var e=this.m;e[0]*=t,e[1]*=t,e[2]*=n,e[3]*=n,this.w=this.s=this.i=null}return this}},{key:"skewSelf",value:function(t,n){if(n%=360,(t%=360)||n){var e=this.m,r=e[0],i=e[1],o=e[2],u=e[3];t&&(t=P(t*R),e[2]+=r*t,e[3]+=i*t),n&&(n=P(n*R),e[0]+=o*n,e[1]+=u*n),this.w=this.s=this.i=null}return this}},{key:"resetSelf",value:function(){var t=arguments.length>0&&void 0!==arguments[0]?arguments[0]:1,n=arguments.length>1&&void 0!==arguments[1]?arguments[1]:0,e=arguments.length>2&&void 0!==arguments[2]?arguments[2]:0,r=arguments.length>3&&void 0!==arguments[3]?arguments[3]:1,i=arguments.length>4&&void 0!==arguments[4]?arguments[4]:0,o=arguments.length>5&&void 0!==arguments[5]?arguments[5]:0,u=this.m;return u[0]=t,u[1]=n,u[2]=e,u[3]=r,u[4]=i,u[5]=o,this.w=this.s=this.i=null,this}},{key:"recomposeSelf",value:function(){var t=arguments.length>0&&void 0!==arguments[0]?arguments[0]:null,n=arguments.length>1&&void 0!==arguments[1]?arguments[1]:null,e=arguments.length>2&&void 0!==arguments[2]?arguments[2]:null,r=arguments.length>3&&void 0!==arguments[3]?arguments[3]:null,i=arguments.length>4&&void 0!==arguments[4]?arguments[4]:null;return this.isIdentity||this.resetSelf(),t&&(t.x||t.y)&&this.translateSelf(t.x,t.y),n&&this.rotateSelf(n),e&&(e.x&&this.skewSelf(e.x,0),e.y&&this.skewSelf(0,e.y)),!r||1===r.x&&1===r.y||this.scaleSelf(r.x,r.y),i&&(i.x||i.y)&&this.translateSelf(i.x,i.y),this}},{key:"decompose",value:function(){var t=arguments.length>0&&void 0!==arguments[0]?arguments[0]:0,n=arguments.length>1&&void 0!==arguments[1]?arguments[1]:0,e=this.m,r=e[0]*e[0]+e[1]*e[1],i=[[e[0],e[1]],[e[2],e[3]]],o=N(r);if(0===o)return{origin:{x:p(e[4]),y:p(e[5])},translate:{x:p(t),y:p(n)},scale:{x:0,y:0},skew:{x:0,y:0},rotate:0};i[0][0]/=o,i[0][1]/=o;var u=e[0]*e[3]-e[1]*e[2]<0;u&&(o=-o);var a=i[0][0]*i[1][0]+i[0][1]*i[1][1];i[1][0]-=i[0][0]*a,i[1][1]-=i[0][1]*a;var l=N(i[1][0]*i[1][0]+i[1][1]*i[1][1]);if(0===l)return{origin:{x:p(e[4]),y:p(e[5])},translate:{x:p(t),y:p(n)},scale:{x:p(o),y:0},skew:{x:0,y:0},rotate:0};i[1][0]/=l,i[1][1]/=l,a/=l;var s=0;return i[1][1]<0?(s=M(i[1][1])*F,i[0][1]<0&&(s=360-s)):s=E(i[0][1])*F,u&&(s=-s),a=I(a,N(i[0][0]*i[0][0]+i[0][1]*i[0][1]))*F,u&&(a=-a),{origin:{x:p(e[4]),y:p(e[5])},translate:{x:p(t),y:p(n)},scale:{x:p(o),y:p(l)},skew:{x:p(a),y:0},rotate:p(s)}}},{key:"clone",value:function(){var t=this.m;return new this.constructor(t[0],t[1],t[2],t[3],t[4],t[5])}},{key:"toString",value:function(){var t=arguments.length>0&&void 0!==arguments[0]?arguments[0]:" ";if(null===this.s){var n=this.m.map((function(t){return p(t)}));1===n[0]&&0===n[1]&&0===n[2]&&1===n[3]?this.s="translate("+n[4]+t+n[5]+")":this.s="matrix("+n.join(t)+")"}return this.s}}],[{key:"create",value:function(t){return t?Array.isArray(t)?f(this,v(t)):t instanceof this?t.clone():(new this).recomposeSelf(t.origin,t.rotate,t.skew,t.scale,t.translate):new this}}]),t}();function q(t,n,e){return t>=.5?e:n}function B(t,n,e){return 0===t||n===e?n:t*(e-n)+n}function D(t,n,e){var r=B(t,n,e);return r<=0?0:r}function L(t,n,e){var r=B(t,n,e);return r<=0?0:r>=1?1:r}function C(t,n,e){return 0===t?n:1===t?e:{x:B(t,n.x,e.x),y:B(t,n.y,e.y)}}function V(t,n,e){var r=function(t,n,e){return Math.round(B(t,n,e))}(t,n,e);return r<=0?0:r>=255?255:r}function G(t,n,e){return 0===t?n:1===t?e:{r:V(t,n.r,e.r),g:V(t,n.g,e.g),b:V(t,n.b,e.b),a:B(t,null==n.a?1:n.a,null==e.a?1:e.a)}}function z(t,n){for(var e=[],r=0;r<t;r++)e.push(n);return e}function Y(t,n){if(--n<=0)return t;var e=(t=Object.assign([],t)).length;do{for(var r=0;r<e;r++)t.push(t[r])}while(--n>0);return t}var $,U=function(){function t(n){r(this,t),this.list=n,this.length=n.length}return o(t,[{key:"setAttribute",value:function(t,n){for(var e=this.list,r=0;r<this.length;r++)e[r].setAttribute(t,n)}},{key:"removeAttribute",value:function(t){for(var n=this.list,e=0;e<this.length;e++)n[e].removeAttribute(t)}},{key:"style",value:function(t,n){for(var e=this.list,r=0;r<this.length;r++)e[r].style[t]=n}}]),t}(),Q=/-./g,H=function(t,n){return n.toUpperCase()};function J(t){return"function"==typeof t?t:q}function Z(t){return t?"function"==typeof t?t:Array.isArray(t)?function(t){var n=arguments.length>1&&void 0!==arguments[1]?arguments[1]:w;if(!Array.isArray(t))return n;switch(t.length){case 1:return S(t[0])||n;case 2:return S(t[0],t[1])||n;case 4:return _(t[0],t[1],t[2],t[3])||n}return n}(t,null):function(t,n){var e=arguments.length>2&&void 0!==arguments[2]?arguments[2]:w;switch(t){case"linear":return w;case"steps":return S(n.steps||1,n.jump||0)||e;case"bezier":case"cubic-bezier":return _(n.x1||0,n.y1||0,n.x2||0,n.y2||0)||e}return e}(t.type,t.value,null):null}function K(t,n,e){var r=arguments.length>3&&void 0!==arguments[3]&&arguments[3],i=n.length-1;if(t<=n[0].t)return r?[0,0,n[0].v]:n[0].v;if(t>=n[i].t)return r?[i,1,n[i].v]:n[i].v;var o,u=n[0],a=null;for(o=1;o<=i;o++){if(!(t>n[o].t)){a=n[o];break}u=n[o]}return null==a?r?[i,1,n[i].v]:n[i].v:u.t===a.t?r?[o,1,a.v]:a.v:(t=(t-u.t)/(a.t-u.t),u.e&&(t=u.e(t)),r?[o,t,e(t,u.v,a.v)]:e(t,u.v,a.v))}function W(t,n){var e=arguments.length>2&&void 0!==arguments[2]?arguments[2]:null;return t&&t.length?"function"!=typeof n?null:("function"!=typeof e&&(e=null),function(r){var i=K(r,t,n);return null!=i&&e&&(i=e(i)),i}):null}function X(t,n){return t.t-n.t}function tt(t,n,r,i,o){var u,a="@"===r[0],l="#"===r[0],s=$[r],f=q;switch(a?(u=r.substr(1),r=u.replace(Q,H)):l&&(r=r.substr(1)),e(s)){case"function":if(f=s(i,o,K,Z,r,a,n,t),l)return f;break;case"string":f=W(i,J(s));break;case"object":if((f=W(i,J(s.i),s.f))&&"function"==typeof s.u)return s.u(n,f,r,a,t)}return f?function(t,n,e){if(arguments.length>3&&void 0!==arguments[3]&&arguments[3])return t instanceof U?function(r){return t.style(n,e(r))}:function(r){return t.style[n]=e(r)};if(Array.isArray(n)){var r=n.length;return function(i){var o=e(i);if(null==o)for(var u=0;u<r;u++)t[u].removeAttribute(n);else for(var a=0;a<r;a++)t[a].setAttribute(n,o)}}return function(r){var i=e(r);null==i?t.removeAttribute(n):t.setAttribute(n,i)}}(n,r,f,a):null}function nt(t,n,r,i){if(!i||"object"!==e(i))return null;var o=null,u=null;return Array.isArray(i)?u=function(t){if(!t||!t.length)return null;for(var n=0;n<t.length;n++)t[n].e&&(t[n].e=Z(t[n].e));return t.sort(X)}(i):(u=i.keys,o=i.data||null),u?tt(t,n,r,u,o):null}function et(t,n,e){if(!e)return null;var r=[];for(var i in e)if(e.hasOwnProperty(i)){var o=nt(t,n,i,e[i]);o&&r.push(o)}return r.length?r:null}function rt(t,n){if(!n.settings.duration||n.settings.duration<0)return null;var e,r,i,o,u,a=function(t,n){if(!n)return null;var e=[];if(Array.isArray(n))for(var r=n.length,i=0;i<r;i++){var o=n[i];if(2===o.length){var u=null;if("string"==typeof o[0])u=t.getElementById(o[0]);else if(Array.isArray(o[0])){u=[];for(var a=0;a<o[0].length;a++)if("string"==typeof o[0][a]){var l=t.getElementById(o[0][a]);l&&u.push(l)}u=u.length?1===u.length?u[0]:new U(u):null}if(u){var s=et(t,u,o[1]);s&&(e=e.concat(s))}}}else for(var f in n)if(n.hasOwnProperty(f)){var c=t.getElementById(f);if(c){var h=et(t,c,n[f]);h&&(e=e.concat(h))}}return e.length?e:null}(t,n.elements);return a?(e=a,r=n.settings,i=r.duration,o=e.length,u=null,function(t,n){var a=r.iterations||1/0,l=(r.alternate&&a%2==0)^r.direction>0?i:0,s=t%i,f=1+(t-s)/i;n*=r.direction,r.alternate&&f%2==0&&(n=-n);var c=!1;if(f>a)s=l,c=!0,-1===r.fill&&(s=r.direction>0?0:i);else if(n<0&&(s=i-s),s===u)return!1;u=s;for(var h=0;h<o;h++)e[h](s);return c}):null}function it(t,n){for(var e=n.querySelectorAll("svg"),r=0;r<e.length;r++)if(e[r].id===t.root&&!e[r].svgatorAnimation)return e[r].svgatorAnimation=!0,e[r];return null}function ot(t){var n=function(t){return t.shadowRoot};return document?Array.from(t.querySelectorAll(":not("+["a","area","audio","br","canvas","circle","datalist","embed","g","head","hr","iframe","img","input","link","object","path","polygon","rect","script","source","style","svg","title","track","video"].join()+")")).filter(n).map(n):[]}function ut(t){var n=arguments.length>1&&void 0!==arguments[1]?arguments[1]:document,e=arguments.length>2&&void 0!==arguments[2]?arguments[2]:0,r=it(t,n);if(r)return r;if(e>=20)return null;for(var i=ot(n),o=0;o<i.length;o++){var u=ut(t,i[o],e+1);if(u)return u}return null}function at(t,n){if($=n,!t||!t.root||!Array.isArray(t.animations))return null;var e=ut(t);if(!e)return null;var r=t.animations.map((function(t){return rt(e,t)})).filter((function(t){return!!t}));return r.length?{svg:e,animations:r,animationSettings:t.animationSettings,options:t.options||void 0}:null}function lt(t){var n=arguments.length>1&&void 0!==arguments[1]?arguments[1]:null,e=arguments.length>2&&void 0!==arguments[2]?arguments[2]:Number,r=arguments.length>3&&void 0!==arguments[3]?arguments[3]:"undefined"!=typeof BigInt&&BigInt,i="0x"+(t.replace(/[^0-9a-fA-F]+/g,"")||27);return n&&r&&e.isSafeInteger&&!e.isSafeInteger(+i)?e(r(i))%n+n:+i}function st(t,n,e){return!t||!e||n>t.length?t:t.substring(0,n)+st(t.substring(n+1),e,e)}function ft(t){var n=arguments.length>1&&void 0!==arguments[1]?arguments[1]:27;return!t||t%n?t%n:[0,1].includes(n)?n:ft(t/n,n)}function ct(t,n,e){if(t&&t.length){var r=lt(e),i=ft(r)+5,o=st(t,ft(r,5),i);return o=o.replace(/\x7c$/g,"==").replace(/\x2f$/g,"="),o=function(t,n,e){var r=+("0x"+t.substring(0,4));t=t.substring(4);for(var i=lt(n,r)%r+e%27,o=[],u=0;u<t.length;u+=2)if("|"!==t[u]){var a=+("0x"+t[u]+t[u+1])-i;o.push(a)}else{var l=+("0x"+t.substring(u+1,u+1+4))-i;u+=3,o.push(l)}return String.fromCharCode.apply(String,o)}(o=(o=atob(o)).replace(/[\x41-\x5A]/g,""),n,r),o=JSON.parse(o)}}var ht=[{key:"alternate",def:!1},{key:"fill",def:1},{key:"iterations",def:0},{key:"direction",def:1},{key:"speed",def:1},{key:"fps",def:100}],vt=function(){function t(n,e){var i=this,o=arguments.length>2&&void 0!==arguments[2]?arguments[2]:null;r(this,t),this._id=0,this._running=!1,this._rollingBack=!1,this._animations=n,this._settings=e,(!o||o<"2022-05-02")&&delete this._settings.speed,ht.forEach((function(t){i._settings[t.key]=i._settings[t.key]||t.def})),this.duration=e.duration,this.offset=e.offset||0,this.rollbackStartOffset=0}return o(t,[{key:"alternate",get:function(){return this._settings.alternate}},{key:"fill",get:function(){return this._settings.fill}},{key:"iterations",get:function(){return this._settings.iterations}},{key:"direction",get:function(){return this._settings.direction}},{key:"speed",get:function(){return this._settings.speed}},{key:"fps",get:function(){return this._settings.fps}},{key:"maxFiniteDuration",get:function(){return this.iterations>0?this.iterations*this.duration:this.duration}},{key:"_apply",value:function(t){for(var n=arguments.length>1&&void 0!==arguments[1]?arguments[1]:{},e=this._animations,r=e.length,i=0,o=0;o<r;o++)n[o]?i++:(n[o]=e[o](t,1),n[o]&&i++);return i}},{key:"_rollback",value:function(t){var n=this,e=1/0,r=null;this.rollbackStartOffset=t,this._rollingBack=!0,this._running=!0;this._id=window.requestAnimationFrame((function i(o){if(n._rollingBack){null==r&&(r=o);var u=Math.round(t-(o-r)*n.speed);if(u>n.duration&&e!==1/0){var a=!!n.alternate&&u/n.duration%2>1,l=u%n.duration;u=(l+=a?n.duration:0)||n.duration}var s=(n.fps?1e3/n.fps:0)*n.speed,f=Math.max(0,u);f<=e-s&&(n.offset=f,e=f,n._apply(f));var c=n.iterations>0&&-1===n.fill&&u>=n.maxFiniteDuration;(u<=0||n.offset<u||c)&&n.stop(),n._id=window.requestAnimationFrame(i)}}))}},{key:"_start",value:function(){var t=this,n=arguments.length>0&&void 0!==arguments[0]?arguments[0]:0,e=-1/0,r=null,i={};this._running=!0;var o=function o(u){null==r&&(r=u);var a=Math.round((u-r)*t.speed+n),l=(t.fps?1e3/t.fps:0)*t.speed;if(a>=e+l&&!t._rollingBack&&(t.offset=a,e=a,t._apply(a,i)===t._animations.length))return void t.pause(!0);t._id=window.requestAnimationFrame(o)};this._id=window.requestAnimationFrame(o)}},{key:"_pause",value:function(){this._id&&window.cancelAnimationFrame(this._id),this._running=!1}},{key:"play",value:function(){if(!this._running)return this._rollingBack?this._rollback(this.offset):this._start(this.offset)}},{key:"stop",value:function(){this._pause(),this.offset=0,this.rollbackStartOffset=0,this._rollingBack=!1,this._apply(0)}},{key:"reachedToEnd",value:function(){return this.iterations>0&&this.offset>=this.iterations*this.duration}},{key:"restart",value:function(){var t=arguments.length>0&&void 0!==arguments[0]&&arguments[0];this.stop(t),this.play(t)}},{key:"pause",value:function(){this._pause()}},{key:"reverse",value:function(){this.direction=-this.direction}}],[{key:"build",value:function(t,n){delete t.animationSettings,t.options=ct(t.options,t.root,"5c7f360c"),t.animations.map((function(n){n.settings=ct(n.s,t.root,"5c7f360c"),delete n.s,t.animationSettings||(t.animationSettings=n.settings)}));var e=t.version;if(!(t=at(t,n)))return null;var r=t.options||{},i=new this(t.animations,t.animationSettings,e);return{el:t.svg,options:r,player:i}}},{key:"push",value:function(t){return this.build(t)}},{key:"init",value:function(){var t=this,n=window.__SVGATOR_PLAYER__&&window.__SVGATOR_PLAYER__["5c7f360c"];Array.isArray(n)&&n.splice(0).forEach((function(n){return t.build(n)}))}}]),t}();function yt(t){return p(t)+""}function gt(t){var n=arguments.length>1&&void 0!==arguments[1]?arguments[1]:" ";return t&&t.length?t.map(yt).join(n):""}function dt(t){if(!t)return"transparent";if(null==t.a||t.a>=1){var n=function(t){return 1===(t=parseInt(t).toString(16)).length?"0"+t:t},e=function(t){return t.charAt(0)===t.charAt(1)},r=n(t.r),i=n(t.g),o=n(t.b);return e(r)&&e(i)&&e(o)&&(r=r.charAt(0),i=i.charAt(0),o=o.charAt(0)),"#"+r+i+o}return"rgba("+t.r+","+t.g+","+t.b+","+t.a+")"}function pt(t){return t?"url(#"+t+")":"none"}!function(){for(var t=0,n=["ms","moz","webkit","o"],e=0;e<n.length&&!window.requestAnimationFrame;++e)window.requestAnimationFrame=window[n[e]+"RequestAnimationFrame"],window.cancelAnimationFrame=window[n[e]+"CancelAnimationFrame"]||window[n[e]+"CancelRequestAnimationFrame"];window.requestAnimationFrame||(window.requestAnimationFrame=function(n){var e=Date.now(),r=Math.max(0,16-(e-t)),i=window.setTimeout((function(){n(e+r)}),r);return t=e+r,i},window.cancelAnimationFrame=window.clearTimeout)}();var mt={f:null,i:function(t,n,e){return 0===t?n:1===t?e:{x:D(t,n.x,e.x),y:D(t,n.y,e.y)}},u:function(t,n){return function(e){var r=n(e);t.setAttribute("rx",yt(r.x)),t.setAttribute("ry",yt(r.y))}}},bt={f:null,i:function(t,n,e){return 0===t?n:1===t?e:{width:D(t,n.width,e.width),height:D(t,n.height,e.height)}},u:function(t,n){return function(e){var r=n(e);t.setAttribute("width",yt(r.width)),t.setAttribute("height",yt(r.height))}}};Object.freeze({M:2,L:2,Z:0,H:1,V:1,C:6,Q:4,T:2,S:4,A:7});var wt={},At=null;function _t(t){var n=function(){if(At)return At;if("object"!==("undefined"==typeof document?"undefined":e(document))||!document.createElementNS)return{};var t=document.createElementNS("http://www.w3.org/2000/svg","svg");return t&&t.style?(t.style.position="absolute",t.style.opacity="0.01",t.style.zIndex="-9999",t.style.left="-9999px",t.style.width="1px",t.style.height="1px",At={svg:t}):{}}().svg;if(!n)return function(t){return null};var r=document.createElementNS(n.namespaceURI,"path");r.setAttributeNS(null,"d",t),r.setAttributeNS(null,"fill","none"),r.setAttributeNS(null,"stroke","none"),n.appendChild(r);var i=r.getTotalLength();return function(t){var n=r.getPointAtLength(i*t);return{x:n.x,y:n.y}}}function xt(t){return wt[t]?wt[t]:wt[t]=_t(t)}function kt(t,n,e,r){if(!t||!r)return!1;var i=["M",t.x,t.y];if(n&&e&&(i.push("C"),i.push(n.x),i.push(n.y),i.push(e.x),i.push(e.y)),n?!e:e){var o=n||e;i.push("Q"),i.push(o.x),i.push(o.y)}return n||e||i.push("L"),i.push(r.x),i.push(r.y),i.join(" ")}function St(t,n,e,r){var i=arguments.length>4&&void 0!==arguments[4]?arguments[4]:1,o=kt(t,n,e,r),u=xt(o);try{return u(i)}catch(t){return null}}function Ot(t,n,e){return t+(n-t)*e}function jt(t,n,e){var r=arguments.length>3&&void 0!==arguments[3]&&arguments[3],i={x:Ot(t.x,n.x,e),y:Ot(t.y,n.y,e)};return r&&(i.a=Mt(t,n)),i}function Mt(t,n){return Math.atan2(n.y-t.y,n.x-t.x)}function Et(t,n,e,r){var i=1-r;return i*i*t+2*i*r*n+r*r*e}function Pt(t,n,e,r){return 2*(1-r)*(n-t)+2*r*(e-n)}function It(t,n,e,r){var i=arguments.length>4&&void 0!==arguments[4]&&arguments[4],o=St(t,n,null,e,r);return o||(o={x:Et(t.x,n.x,e.x,r),y:Et(t.y,n.y,e.y,r)}),i&&(o.a=Rt(t,n,e,r)),o}function Rt(t,n,e,r){return Math.atan2(Pt(t.y,n.y,e.y,r),Pt(t.x,n.x,e.x,r))}function Ft(t,n,e,r,i){var o=i*i;return i*o*(r-t+3*(n-e))+3*o*(t+e-2*n)+3*i*(n-t)+t}function Nt(t,n,e,r,i){var o=1-i;return 3*(o*o*(n-t)+2*o*i*(e-n)+i*i*(r-e))}function Tt(t,n,e,r,i){var o=arguments.length>5&&void 0!==arguments[5]&&arguments[5],u=St(t,n,e,r,i);return u||(u={x:Ft(t.x,n.x,e.x,r.x,i),y:Ft(t.y,n.y,e.y,r.y,i)}),o&&(u.a=qt(t,n,e,r,i)),u}function qt(t,n,e,r,i){return Math.atan2(Nt(t.y,n.y,e.y,r.y,i),Nt(t.x,n.x,e.x,r.x,i))}function Bt(t,n,e){var r=arguments.length>3&&void 0!==arguments[3]&&arguments[3];if(Lt(n)){if(Ct(e))return It(n,e.start,e,t,r)}else if(Lt(e)){if(Vt(n))return It(n,n.end,e,t,r)}else{if(Vt(n))return Ct(e)?Tt(n,n.end,e.start,e,t,r):It(n,n.end,e,t,r);if(Ct(e))return It(n,e.start,e,t,r)}return jt(n,e,t,r)}function Dt(t,n,e){var r=Bt(t,n,e,!0);return r.a=function(t){return arguments.length>1&&void 0!==arguments[1]&&arguments[1]?t+Math.PI:t}(r.a)/b,r}function Lt(t){return!t.type||"corner"===t.type}function Ct(t){return null!=t.start&&!Lt(t)}function Vt(t){return null!=t.end&&!Lt(t)}var Gt=new T;var zt={f:yt,i:B},Yt={f:yt,i:L};function $t(t,n,e){return t.map((function(t){return function(t,n,e){var r=t.v;if(!r||"g"!==r.t||r.s||!r.v||!r.r)return t;var i=e.getElementById(r.r),o=i&&i.querySelectorAll("stop")||[];return r.s=r.v.map((function(t,n){var e=o[n]&&o[n].getAttribute("offset");return{c:t,o:e=p(parseInt(e)/100)}})),delete r.v,t}(t,0,e)}))}var Ut={gt:"gradientTransform",c:{x:"cx",y:"cy"},rd:"r",f:{x:"x1",y:"y1"},to:{x:"x2",y:"y2"}};function Qt(t,n,r,i,o,u,a,l){return $t(t,0,l),n=function(t,n,e){for(var r,i,o,u=t.length-1,a={},l=0;l<=u;l++)(r=t[l]).e&&(r.e=n(r.e)),r.v&&"g"===(i=r.v).t&&i.r&&(o=e.getElementById(i.r))&&(a[i.r]={e:o,s:o.querySelectorAll("stop")});return a}(t,i,l),function(i){var o=r(i,t,Ht);if(!o)return"none";if("c"===o.t)return dt(o.v);if("g"===o.t){if(!n[o.r])return pt(o.r);var u=n[o.r];return function(t,n){for(var e=t.s,r=e.length;r<n.length;r++){var i=e[e.length-1].cloneNode();i.id=Kt(i.id),t.e.appendChild(i),e=t.s=t.e.querySelectorAll("stop")}for(var o=0,u=e.length,a=n.length-1;o<u;o++)e[o].setAttribute("stop-color",dt(n[Math.min(o,a)].c)),e[o].setAttribute("offset",n[Math.min(o,a)].o)}(u,o.s),Object.keys(Ut).forEach((function(t){if(void 0!==o[t])if("object"!==e(Ut[t])){var n,r="gt"===t?(n=o[t],Array.isArray(n)?"matrix("+n.join(" ")+")":""):o[t],i=Ut[t];u.e.setAttribute(i,r)}else Object.keys(Ut[t]).forEach((function(n){if(void 0!==o[t][n]){var e=o[t][n],r=Ut[t][n];u.e.setAttribute(r,e)}}))})),pt(o.r)}return"none"}}function Ht(t,e,r){if(0===t)return e;if(1===t)return r;if(e&&r){var i=e.t;if(i===r.t)switch(e.t){case"c":return{t:i,v:G(t,e.v,r.v)};case"g":if(e.r===r.r){var o={t:i,s:Jt(t,e.s,r.s),r:e.r};return e.gt&&r.gt&&(o.gt=function(t,n,e){var r=n.length;if(r!==e.length)return q(t,n,e);for(var i=new Array(r),o=0;o<r;o++)i[o]=B(t,n[o],e[o]);return i}(t,e.gt,r.gt)),e.c?(o.c=C(t,e.c,r.c),o.rd=D(t,e.rd,r.rd)):e.f&&(o.f=C(t,e.f,r.f),o.to=C(t,e.to,r.to)),o}}if("c"===e.t&&"g"===r.t||"c"===r.t&&"g"===e.t){var u="c"===e.t?e:r,a="g"===e.t?n({},e):n({},r),l=a.s.map((function(t){return{c:u.v,o:t.o}}));return a.s="c"===e.t?Jt(t,l,a.s):Jt(t,a.s,l),a}}return q(t,e,r)}function Jt(t,n,e){if(n.length===e.length)return n.map((function(n,r){return Zt(t,n,e[r])}));for(var r=Math.max(n.length,e.length),i=[],o=0;o<r;o++){var u=Zt(t,n[Math.min(o,n.length-1)],e[Math.min(o,e.length-1)]);i.push(u)}return i}function Zt(t,n,e){return{o:L(t,n.o,e.o||0),c:G(t,n.c,e.c||{})}}function Kt(t){return t.replace(/-fill-([0-9]+)$/,(function(t,n){return"-fill-"+(+n+1)}))}var Wt={fill:Qt,"fill-opacity":Yt,stroke:Qt,"stroke-opacity":Yt,"stroke-width":zt,"stroke-dashoffset":{f:yt,i:B},"stroke-dasharray":{f:function(t){var n=arguments.length>1&&void 0!==arguments[1]?arguments[1]:" ";return t&&t.length>0&&(t=t.map((function(t){return p(t,4)}))),gt(t,n)},i:function(t,n,e){var r,i,o,u=n.length,a=e.length;if(u!==a)if(0===u)n=z(u=a,0);else if(0===a)a=u,e=z(u,0);else{var l=(o=(r=u)*(i=a)/function(t,n){for(var e;n;)e=n,n=t%n,t=e;return t||1}(r,i))<0?-o:o;n=Y(n,Math.floor(l/u)),e=Y(e,Math.floor(l/a)),u=a=l}for(var s=[],f=0;f<u;f++)s.push(p(D(t,n[f],e[f])));return s}},opacity:Yt,transform:function(t,n,r,i){if(!(t=function(t,n){if(!t||"object"!==e(t))return null;var r=!1;for(var i in t)t.hasOwnProperty(i)&&(t[i]&&t[i].length?(t[i].forEach((function(t){t.e&&(t.e=n(t.e))})),r=!0):delete t[i]);return r?t:null}(t,i)))return null;var o=function(e,i,o){var u=arguments.length>3&&void 0!==arguments[3]?arguments[3]:null;return t[e]?r(i,t[e],o):n&&n[e]?n[e]:u};return n&&n.a&&t.o?function(n){var e=r(n,t.o,Dt);return Gt.recomposeSelf(e,o("r",n,B,0)+e.a,o("k",n,C),o("s",n,C),o("t",n,C)).toString()}:function(t){return Gt.recomposeSelf(o("o",t,Bt,null),o("r",t,B,0),o("k",t,C),o("s",t,C),o("t",t,C)).toString()}},r:zt,"#size":bt,"#radius":mt,_:function(t,n){if(Array.isArray(t))for(var e=0;e<t.length;e++)this[t[e]]=n;else this[t]=n}},Xt=function(t){!function(t,n){if("function"!=typeof n&&null!==n)throw new TypeError("Super expression must either be null or a function");t.prototype=Object.create(n&&n.prototype,{constructor:{value:t,writable:!0,configurable:!0}}),n&&l(t,n)}(u,t);var n,e,i=(n=u,e=s(),function(){var t,r=a(n);if(e){var i=a(this).constructor;t=Reflect.construct(r,arguments,i)}else t=r.apply(this,arguments);return c(this,t)});function u(){return r(this,u),i.apply(this,arguments)}return o(u,null,[{key:"build",value:function(t){var n=h(a(u),"build",this).call(this,t,Wt);if(!n)return null;n.el,n.options,function(t,n,e){t.play()}(n.player)}}]),u}(vt);return Xt.init(),Xt}));
(function(s,i,o,w,d,a,b){w[o]=w[o]||{};w[o][s]=w[o][s]||[];w[o][s].push(i);})('5c7f360c',{"root":"e1SFlh9BTaj1","version":"2022-05-04","animations":[{"elements":{"e1SFlh9BTaj122":{"opacity":[{"t":0,"v":0},{"t":2300,"v":1}]},"e1SFlh9BTaj188":{"opacity":[{"t":0,"v":0},{"t":2300,"v":1}]},"e1SFlh9BTaj224":{"opacity":[{"t":0,"v":0},{"t":2300,"v":1}]},"e1SFlh9BTaj361":{"opacity":[{"t":0,"v":0},{"t":2300,"v":1}]}},"s":"MLDA1ZDk0M2I3ZEg4ZTEhiN2E4ZDgyODg4NzNEiNTM0YjRjNDlTNDk0NNTNiN2RLODI4Ykw3ZUTdjOGQ4Mjg4ODdEM2WI1MzRhNDUzYjgyOGRYHUTdlTThiN2E4ZDgySODg4NzhjM2I1MzRhNKDUzYlk3ZjgyODU4NTANiNTNWNGE0NTNiN2EO4NThkRjdlOGJUODc3JYThkN2UzYjUzN2Y3YUTg1OGM3ZTQ1M2I4YzPg5N2U3ZTdkM2I1MzRBhNDUzYjdmODk4YzNiANTM0YTQ5NDk5Ng|"}],"options":"MJDAxMDg4MmY4MDgxNmDU3ZjgxMmY0NzJmNzkB3YzZlNzEyZkY4YQ|"},'__SVGATOR_PLAYER__',window,document)
]]></script>
</svg>
